<svg width="471" height="25" viewBox="0 0 471 25" fill="none" xmlns="http://www.w3.org/2000/svg">
<path d="M37.4106 7.90234V17.8555H36.0913V7.90234H37.4106ZM40.3271 7.90234H41.6054L44.8661 16.0166L48.12 7.90234H49.4052L45.3583 17.8555H44.3603L40.3271 7.90234ZM39.9101 7.90234H41.038L41.2226 13.9727V17.8555H39.9101V7.90234ZM48.6874 7.90234H49.8153V17.8555H48.5028V13.9727L48.6874 7.90234ZM59.5882 12.8994V16.543C59.4651 16.7253 59.2692 16.9303 59.0003 17.1582C58.7314 17.3815 58.36 17.5775 57.886 17.7461C57.4166 17.9102 56.8105 17.9922 56.0677 17.9922C55.4616 17.9922 54.9033 17.8874 54.3929 17.6777C53.887 17.4635 53.4472 17.1536 53.0735 16.748C52.7044 16.3379 52.4173 15.8411 52.2122 15.2578C52.0117 14.6699 51.9114 14.0046 51.9114 13.2617V12.4893C51.9114 11.7464 51.998 11.0833 52.1712 10.5C52.3489 9.91667 52.6087 9.4222 52.9505 9.0166C53.2923 8.60645 53.7116 8.29655 54.2083 8.08691C54.705 7.87272 55.2747 7.76562 55.9173 7.76562C56.6784 7.76562 57.3141 7.89779 57.8245 8.16211C58.3395 8.42188 58.7405 8.7819 59.0276 9.24219C59.3193 9.70247 59.5062 10.2266 59.5882 10.8145H58.2688C58.2096 10.4544 58.0911 10.1263 57.9134 9.83008C57.7402 9.53385 57.4918 9.29688 57.1683 9.11914C56.8447 8.93685 56.4277 8.8457 55.9173 8.8457C55.457 8.8457 55.0582 8.93001 54.721 9.09863C54.3838 9.26725 54.1058 9.50879 53.887 9.82324C53.6683 10.1377 53.5042 10.5182 53.3948 10.9648C53.29 11.4115 53.2376 11.915 53.2376 12.4756V13.2617C53.2376 13.8359 53.3037 14.3486 53.4358 14.7998C53.5726 15.251 53.7662 15.6361 54.0169 15.9551C54.2675 16.2695 54.566 16.5088 54.9124 16.6729C55.2633 16.8369 55.6507 16.9189 56.0745 16.9189C56.5439 16.9189 56.9244 16.8802 57.2161 16.8027C57.5078 16.7207 57.7356 16.625 57.8997 16.5156C58.0638 16.4017 58.1891 16.2946 58.2757 16.1943V13.9658H55.972V12.8994H59.5882ZM68.069 16.8164V17.8555H61.5544V16.9463L64.8151 13.3164C65.2162 12.8698 65.5261 12.4915 65.7448 12.1816C65.9681 11.8672 66.1231 11.5869 66.2097 11.3408C66.3008 11.0902 66.3464 10.835 66.3464 10.5752C66.3464 10.2471 66.278 9.95085 66.1413 9.68652C66.0091 9.41764 65.8132 9.20345 65.5534 9.04395C65.2937 8.88444 64.9792 8.80469 64.6101 8.80469C64.168 8.80469 63.7989 8.89128 63.5026 9.06445C63.211 9.23307 62.9922 9.47005 62.8464 9.77539C62.7006 10.0807 62.6276 10.4316 62.6276 10.8281H61.363C61.363 10.2676 61.486 9.75488 61.7321 9.29004C61.9782 8.8252 62.3428 8.45605 62.8259 8.18262C63.309 7.90462 63.9037 7.76562 64.6101 7.76562C65.239 7.76562 65.7767 7.87728 66.2233 8.10059C66.67 8.31934 67.0118 8.62923 67.2487 9.03027C67.4903 9.42676 67.611 9.8916 67.611 10.4248C67.611 10.7165 67.5609 11.0127 67.4606 11.3135C67.3649 11.6097 67.2305 11.9059 67.0573 12.2021C66.8887 12.4984 66.6905 12.79 66.4626 13.0771C66.2393 13.3643 66 13.6468 65.7448 13.9248L63.0788 16.8164H68.069ZM75.7706 12.0859V13.6035C75.7706 14.4193 75.6977 15.1074 75.5519 15.668C75.406 16.2285 75.1964 16.6797 74.923 17.0215C74.6495 17.3633 74.3191 17.6117 73.9317 17.7666C73.5489 17.917 73.116 17.9922 72.6329 17.9922C72.2501 17.9922 71.8969 17.9443 71.5733 17.8486C71.2498 17.7529 70.9581 17.6003 70.6983 17.3906C70.4431 17.1764 70.2244 16.8984 70.0421 16.5566C69.8598 16.2148 69.7208 15.8001 69.6251 15.3125C69.5294 14.8249 69.4815 14.2552 69.4815 13.6035V12.0859C69.4815 11.2702 69.5545 10.5866 69.7003 10.0352C69.8507 9.48372 70.0626 9.04167 70.336 8.70898C70.6095 8.37174 70.9376 8.13021 71.3204 7.98438C71.7078 7.83854 72.1407 7.76562 72.6192 7.76562C73.0066 7.76562 73.3621 7.81348 73.6856 7.90918C74.0138 8.00033 74.3054 8.14844 74.5606 8.35352C74.8159 8.55404 75.0323 8.82292 75.2101 9.16016C75.3924 9.49284 75.5313 9.90072 75.6271 10.3838C75.7228 10.8669 75.7706 11.4342 75.7706 12.0859ZM74.4991 13.8086V11.874C74.4991 11.4274 74.4718 11.0355 74.4171 10.6982C74.367 10.3564 74.2918 10.0648 74.1915 9.82324C74.0912 9.58171 73.9636 9.38574 73.8087 9.23535C73.6583 9.08496 73.4828 8.97559 73.2823 8.90723C73.0864 8.83431 72.8653 8.79785 72.6192 8.79785C72.3185 8.79785 72.0519 8.85482 71.8194 8.96875C71.587 9.07812 71.391 9.25358 71.2315 9.49512C71.0766 9.73665 70.9581 10.0534 70.8761 10.4453C70.794 10.8372 70.753 11.3135 70.753 11.874V13.8086C70.753 14.2552 70.7781 14.6494 70.8282 14.9912C70.8829 15.333 70.9627 15.6292 71.0675 15.8799C71.1723 16.126 71.2999 16.3288 71.4503 16.4883C71.6007 16.6478 71.7739 16.7663 71.9698 16.8438C72.1703 16.9167 72.3914 16.9531 72.6329 16.9531C72.9428 16.9531 73.214 16.8939 73.4464 16.7754C73.6788 16.6569 73.8725 16.4723 74.0274 16.2217C74.1869 15.9665 74.3054 15.6406 74.3829 15.2441C74.4604 14.8431 74.4991 14.3646 74.4991 13.8086ZM84.019 16.8164V17.8555H77.5044V16.9463L80.7651 13.3164C81.1662 12.8698 81.4761 12.4915 81.6948 12.1816C81.9181 11.8672 82.0731 11.5869 82.1597 11.3408C82.2508 11.0902 82.2964 10.835 82.2964 10.5752C82.2964 10.2471 82.228 9.95085 82.0913 9.68652C81.9591 9.41764 81.7632 9.20345 81.5034 9.04395C81.2437 8.88444 80.9292 8.80469 80.5601 8.80469C80.118 8.80469 79.7489 8.89128 79.4526 9.06445C79.161 9.23307 78.9422 9.47005 78.7964 9.77539C78.6506 10.0807 78.5776 10.4316 78.5776 10.8281H77.313C77.313 10.2676 77.436 9.75488 77.6821 9.29004C77.9282 8.8252 78.2928 8.45605 78.7759 8.18262C79.259 7.90462 79.8537 7.76562 80.5601 7.76562C81.189 7.76562 81.7267 7.87728 82.1733 8.10059C82.62 8.31934 82.9618 8.62923 83.1987 9.03027C83.4403 9.42676 83.561 9.8916 83.561 10.4248C83.561 10.7165 83.5109 11.0127 83.4106 11.3135C83.3149 11.6097 83.1805 11.9059 83.0073 12.2021C82.8387 12.4984 82.6405 12.79 82.4126 13.0771C82.1893 13.3643 81.95 13.6468 81.6948 13.9248L79.0288 16.8164H84.019ZM89.6288 7.84766V17.8555H88.3642V9.42676L85.8144 10.3564V9.21484L89.4306 7.84766H89.6288ZM95.2933 12.2568H96.1956C96.6377 12.2568 97.0022 12.1839 97.2894 12.0381C97.581 11.8877 97.7975 11.6849 97.9388 11.4297C98.0846 11.1699 98.1575 10.8783 98.1575 10.5547C98.1575 10.1719 98.0937 9.85059 97.9661 9.59082C97.8385 9.33105 97.6471 9.13509 97.3919 9.00293C97.1367 8.87077 96.8131 8.80469 96.4212 8.80469C96.0657 8.80469 95.7513 8.87533 95.4778 9.0166C95.209 9.15332 94.997 9.34928 94.8421 9.60449C94.6917 9.8597 94.6165 10.1605 94.6165 10.5068H93.3519C93.3519 10.001 93.4795 9.54069 93.7347 9.12598C93.9899 8.71126 94.3476 8.38086 94.8079 8.13477C95.2728 7.88867 95.8105 7.76562 96.4212 7.76562C97.0228 7.76562 97.5491 7.87272 98.0003 8.08691C98.4515 8.29655 98.8024 8.611 99.053 9.03027C99.3037 9.44499 99.429 9.96224 99.429 10.582C99.429 10.8327 99.3698 11.1016 99.2513 11.3887C99.1373 11.6712 98.9573 11.9355 98.7112 12.1816C98.4697 12.4277 98.1552 12.6305 97.7679 12.79C97.3805 12.945 96.9157 13.0225 96.3733 13.0225H95.2933V12.2568ZM95.2933 13.2959V12.5371H96.3733C97.0068 12.5371 97.5309 12.6123 97.9456 12.7627C98.3603 12.9131 98.6862 13.1136 98.9231 13.3643C99.1647 13.6149 99.3333 13.8906 99.429 14.1914C99.5293 14.4876 99.5794 14.7839 99.5794 15.0801C99.5794 15.5449 99.4996 15.9574 99.3401 16.3174C99.1852 16.6774 98.9642 16.9827 98.6771 17.2334C98.3945 17.484 98.0618 17.6732 97.679 17.8008C97.2962 17.9284 96.8792 17.9922 96.428 17.9922C95.9951 17.9922 95.5872 17.9307 95.2044 17.8076C94.8261 17.6846 94.4912 17.5068 94.1995 17.2744C93.9078 17.0374 93.68 16.748 93.5159 16.4062C93.3519 16.0599 93.2698 15.6657 93.2698 15.2236H94.5345C94.5345 15.57 94.6097 15.873 94.7601 16.1328C94.915 16.3926 95.1338 16.5954 95.4163 16.7412C95.7034 16.8825 96.0407 16.9531 96.428 16.9531C96.8154 16.9531 97.1481 16.887 97.4261 16.7549C97.7086 16.6182 97.9251 16.4131 98.0755 16.1396C98.2304 15.8662 98.3079 15.5221 98.3079 15.1074C98.3079 14.6927 98.2213 14.3532 98.0481 14.0889C97.875 13.82 97.6289 13.6217 97.3099 13.4941C96.9954 13.362 96.624 13.2959 96.1956 13.2959H95.2933ZM108.149 14.5059V15.5449H100.958V14.7998L105.415 7.90234H106.447L105.34 9.89844L102.393 14.5059H108.149ZM106.761 7.90234V17.8555H105.497V7.90234H106.761ZM111.243 12.2568H112.146C112.588 12.2568 112.952 12.1839 113.239 12.0381C113.531 11.8877 113.747 11.6849 113.889 11.4297C114.035 11.1699 114.108 10.8783 114.108 10.5547C114.108 10.1719 114.044 9.85059 113.916 9.59082C113.789 9.33105 113.597 9.13509 113.342 9.00293C113.087 8.87077 112.763 8.80469 112.371 8.80469C112.016 8.80469 111.701 8.87533 111.428 9.0166C111.159 9.15332 110.947 9.34928 110.792 9.60449C110.642 9.8597 110.567 10.1605 110.567 10.5068H109.302C109.302 10.001 109.429 9.54069 109.685 9.12598C109.94 8.71126 110.298 8.38086 110.758 8.13477C111.223 7.88867 111.761 7.76562 112.371 7.76562C112.973 7.76562 113.499 7.87272 113.95 8.08691C114.401 8.29655 114.752 8.611 115.003 9.03027C115.254 9.44499 115.379 9.96224 115.379 10.582C115.379 10.8327 115.32 11.1016 115.201 11.3887C115.087 11.6712 114.907 11.9355 114.661 12.1816C114.42 12.4277 114.105 12.6305 113.718 12.79C113.331 12.945 112.866 13.0225 112.323 13.0225H111.243V12.2568ZM111.243 13.2959V12.5371H112.323C112.957 12.5371 113.481 12.6123 113.896 12.7627C114.31 12.9131 114.636 13.1136 114.873 13.3643C115.115 13.6149 115.283 13.8906 115.379 14.1914C115.479 14.4876 115.529 14.7839 115.529 15.0801C115.529 15.5449 115.45 15.9574 115.29 16.3174C115.135 16.6774 114.914 16.9827 114.627 17.2334C114.345 17.484 114.012 17.6732 113.629 17.8008C113.246 17.9284 112.829 17.9922 112.378 17.9922C111.945 17.9922 111.537 17.9307 111.154 17.8076C110.776 17.6846 110.441 17.5068 110.15 17.2744C109.858 17.0374 109.63 16.748 109.466 16.4062C109.302 16.0599 109.22 15.6657 109.22 15.2236H110.484C110.484 15.57 110.56 15.873 110.71 16.1328C110.865 16.3926 111.084 16.5954 111.366 16.7412C111.653 16.8825 111.991 16.9531 112.378 16.9531C112.765 16.9531 113.098 16.887 113.376 16.7549C113.659 16.6182 113.875 16.4131 114.025 16.1396C114.18 15.8662 114.258 15.5221 114.258 15.1074C114.258 14.6927 114.171 14.3532 113.998 14.0889C113.825 13.82 113.579 13.6217 113.26 13.4941C112.945 13.362 112.574 13.2959 112.146 13.2959H111.243ZM124.099 14.5059V15.5449H116.908V14.7998L121.365 7.90234H122.397L121.29 9.89844L118.343 14.5059H124.099ZM122.711 7.90234V17.8555H121.447V7.90234H122.711ZM125.505 17.1855C125.505 16.9714 125.571 16.7913 125.703 16.6455C125.84 16.4951 126.036 16.4199 126.291 16.4199C126.546 16.4199 126.74 16.4951 126.872 16.6455C127.009 16.7913 127.077 16.9714 127.077 17.1855C127.077 17.3952 127.009 17.5729 126.872 17.7188C126.74 17.8646 126.546 17.9375 126.291 17.9375C126.036 17.9375 125.84 17.8646 125.703 17.7188C125.571 17.5729 125.505 17.3952 125.505 17.1855ZM129.31 10.459H130.581V18.7373C130.581 19.1885 130.508 19.5713 130.363 19.8857C130.221 20.2002 130.007 20.4372 129.72 20.5967C129.437 20.7607 129.08 20.8428 128.647 20.8428C128.533 20.8428 128.401 20.8314 128.25 20.8086C128.095 20.7858 127.965 20.7585 127.861 20.7266L127.867 19.708C127.954 19.7262 128.052 19.7399 128.161 19.749C128.271 19.7627 128.367 19.7695 128.449 19.7695C128.635 19.7695 128.793 19.7354 128.92 19.667C129.048 19.5986 129.144 19.4893 129.207 19.3389C129.276 19.1885 129.31 18.988 129.31 18.7373V10.459ZM129.18 8.49707C129.18 8.29199 129.244 8.11882 129.371 7.97754C129.499 7.83626 129.684 7.76562 129.925 7.76562C130.171 7.76562 130.358 7.83626 130.486 7.97754C130.613 8.11882 130.677 8.29199 130.677 8.49707C130.677 8.69303 130.613 8.86165 130.486 9.00293C130.358 9.13965 130.171 9.20801 129.925 9.20801C129.684 9.20801 129.499 9.13965 129.371 9.00293C129.244 8.86165 129.18 8.69303 129.18 8.49707ZM133.99 11.8809V20.6992H132.718V10.459H133.881L133.99 11.8809ZM138.973 14.0957V14.2393C138.973 14.777 138.91 15.276 138.782 15.7363C138.654 16.1921 138.467 16.5885 138.221 16.9258C137.98 17.263 137.681 17.5251 137.326 17.7119C136.97 17.8988 136.563 17.9922 136.102 17.9922C135.633 17.9922 135.218 17.9147 134.858 17.7598C134.498 17.6048 134.193 17.3792 133.942 17.083C133.691 16.7868 133.491 16.4313 133.341 16.0166C133.195 15.6019 133.094 15.1348 133.04 14.6152V13.8496C133.094 13.3027 133.197 12.8128 133.347 12.3799C133.498 11.9469 133.696 11.5778 133.942 11.2725C134.193 10.9626 134.496 10.7279 134.851 10.5684C135.207 10.4043 135.617 10.3223 136.082 10.3223C136.547 10.3223 136.959 10.4134 137.319 10.5957C137.679 10.7734 137.982 11.0286 138.228 11.3613C138.474 11.694 138.659 12.0928 138.782 12.5576C138.91 13.0179 138.973 13.5306 138.973 14.0957ZM137.702 14.2393V14.0957C137.702 13.7266 137.663 13.3802 137.586 13.0566C137.508 12.7285 137.387 12.4414 137.223 12.1953C137.064 11.9447 136.859 11.7487 136.608 11.6074C136.357 11.4616 136.059 11.3887 135.713 11.3887C135.394 11.3887 135.116 11.4434 134.879 11.5527C134.646 11.6621 134.448 11.8102 134.284 11.9971C134.12 12.1794 133.985 12.389 133.881 12.626C133.78 12.8584 133.705 13.0999 133.655 13.3506V15.1211C133.746 15.4401 133.874 15.7409 134.038 16.0234C134.202 16.3014 134.421 16.527 134.694 16.7002C134.967 16.8688 135.312 16.9531 135.726 16.9531C136.068 16.9531 136.362 16.8825 136.608 16.7412C136.859 16.5954 137.064 16.3971 137.223 16.1465C137.387 15.8958 137.508 15.6087 137.586 15.2852C137.663 14.957 137.702 14.6084 137.702 14.2393ZM145.479 10.459H146.627V17.6982C146.627 18.3499 146.495 18.9059 146.231 19.3662C145.966 19.8265 145.597 20.1751 145.123 20.4121C144.654 20.6536 144.111 20.7744 143.496 20.7744C143.241 20.7744 142.94 20.7334 142.594 20.6514C142.252 20.5739 141.915 20.4395 141.582 20.248C141.254 20.0612 140.978 19.8083 140.755 19.4893L141.418 18.7373C141.728 19.111 142.052 19.3708 142.389 19.5166C142.731 19.6624 143.068 19.7354 143.4 19.7354C143.802 19.7354 144.148 19.6602 144.44 19.5098C144.731 19.3594 144.957 19.1361 145.116 18.8398C145.28 18.5482 145.362 18.1882 145.362 17.7598V12.0859L145.479 10.459ZM140.386 14.2393V14.0957C140.386 13.5306 140.452 13.0179 140.584 12.5576C140.721 12.0928 140.914 11.694 141.165 11.3613C141.42 11.0286 141.728 10.7734 142.088 10.5957C142.448 10.4134 142.854 10.3223 143.305 10.3223C143.77 10.3223 144.175 10.4043 144.522 10.5684C144.872 10.7279 145.169 10.9626 145.41 11.2725C145.656 11.5778 145.85 11.9469 145.991 12.3799C146.133 12.8128 146.231 13.3027 146.285 13.8496V14.4785C146.235 15.0208 146.137 15.5085 145.991 15.9414C145.85 16.3743 145.656 16.7435 145.41 17.0488C145.169 17.3542 144.872 17.5889 144.522 17.7529C144.171 17.9124 143.761 17.9922 143.291 17.9922C142.849 17.9922 142.448 17.8988 142.088 17.7119C141.733 17.5251 141.427 17.263 141.172 16.9258C140.917 16.5885 140.721 16.1921 140.584 15.7363C140.452 15.276 140.386 14.777 140.386 14.2393ZM141.65 14.0957V14.2393C141.65 14.6084 141.687 14.9548 141.76 15.2783C141.837 15.6019 141.954 15.8867 142.108 16.1328C142.268 16.3789 142.471 16.5726 142.717 16.7139C142.963 16.8506 143.257 16.9189 143.599 16.9189C144.018 16.9189 144.364 16.8301 144.638 16.6523C144.911 16.4746 145.128 16.2399 145.287 15.9482C145.451 15.6566 145.579 15.3398 145.67 14.998V13.3506C145.62 13.0999 145.542 12.8584 145.438 12.626C145.337 12.389 145.205 12.1794 145.041 11.9971C144.882 11.8102 144.683 11.6621 144.446 11.5527C144.209 11.4434 143.931 11.3887 143.612 11.3887C143.266 11.3887 142.968 11.4616 142.717 11.6074C142.471 11.7487 142.268 11.9447 142.108 12.1953C141.954 12.4414 141.837 12.7285 141.76 13.0566C141.687 13.3802 141.65 13.7266 141.65 14.0957Z" fill="#4D5961"/>
<path d="M206.368 16.3447L209.301 7.90234H210.729L207.045 17.8555H206.026L206.368 16.3447ZM203.627 7.90234L206.532 16.3447L206.895 17.8555H205.876L202.198 7.90234H203.627ZM213.352 10.459V17.8555H212.08V10.459H213.352ZM211.985 8.49707C211.985 8.29199 212.046 8.11882 212.169 7.97754C212.297 7.83626 212.484 7.76562 212.73 7.76562C212.971 7.76562 213.156 7.83626 213.284 7.97754C213.416 8.11882 213.482 8.29199 213.482 8.49707C213.482 8.69303 213.416 8.86165 213.284 9.00293C213.156 9.13965 212.971 9.20801 212.73 9.20801C212.484 9.20801 212.297 9.13965 212.169 9.00293C212.046 8.86165 211.985 8.69303 211.985 8.49707ZM218.552 17.9922C218.037 17.9922 217.569 17.9056 217.15 17.7324C216.735 17.5547 216.378 17.3063 216.077 16.9873C215.781 16.6683 215.553 16.29 215.393 15.8525C215.234 15.415 215.154 14.9365 215.154 14.417V14.1299C215.154 13.5283 215.243 12.9928 215.421 12.5234C215.598 12.0495 215.84 11.6484 216.145 11.3203C216.451 10.9922 216.797 10.7438 217.184 10.5752C217.572 10.4066 217.973 10.3223 218.387 10.3223C218.916 10.3223 219.372 10.4134 219.755 10.5957C220.142 10.778 220.459 11.0332 220.705 11.3613C220.951 11.6849 221.133 12.0677 221.252 12.5098C221.37 12.9473 221.429 13.4258 221.429 13.9453V14.5127H215.906V13.4805H220.165V13.3848C220.147 13.0566 220.078 12.7376 219.96 12.4277C219.846 12.1178 219.664 11.8626 219.413 11.6621C219.162 11.4616 218.82 11.3613 218.387 11.3613C218.1 11.3613 217.836 11.4229 217.595 11.5459C217.353 11.6644 217.146 11.8421 216.972 12.0791C216.799 12.3161 216.665 12.6055 216.569 12.9473C216.473 13.2891 216.426 13.6833 216.426 14.1299V14.417C216.426 14.7679 216.473 15.0983 216.569 15.4082C216.669 15.7135 216.813 15.9824 217 16.2148C217.191 16.4473 217.421 16.6296 217.69 16.7617C217.964 16.8939 218.274 16.96 218.62 16.96C219.067 16.96 219.445 16.8688 219.755 16.6865C220.065 16.5042 220.336 16.2604 220.568 15.9551L221.334 16.5635C221.174 16.805 220.971 17.0352 220.725 17.2539C220.479 17.4727 220.176 17.6504 219.816 17.7871C219.461 17.9238 219.039 17.9922 218.552 17.9922ZM224.879 16.543L226.779 10.459H227.613L227.449 11.6689L225.515 17.8555H224.701L224.879 16.543ZM223.601 10.459L225.221 16.6113L225.337 17.8555H224.483L222.336 10.459H223.601ZM229.432 16.5635L230.977 10.459H232.235L230.088 17.8555H229.24L229.432 16.5635ZM227.798 10.459L229.657 16.4404L229.869 17.8555H229.063L227.073 11.6553L226.909 10.459H227.798ZM238.58 10.459V17.8555H237.309V10.459H238.58ZM237.213 8.49707C237.213 8.29199 237.274 8.11882 237.397 7.97754C237.525 7.83626 237.712 7.76562 237.958 7.76562C238.2 7.76562 238.384 7.83626 238.512 7.97754C238.644 8.11882 238.71 8.29199 238.71 8.49707C238.71 8.69303 238.644 8.86165 238.512 9.00293C238.384 9.13965 238.2 9.20801 237.958 9.20801C237.712 9.20801 237.525 9.13965 237.397 9.00293C237.274 8.86165 237.213 8.69303 237.213 8.49707ZM241.968 11.9287V17.8555H240.697V10.459H241.9L241.968 11.9287ZM241.708 13.877L241.121 13.8564C241.125 13.3506 241.191 12.8835 241.319 12.4551C241.446 12.0221 241.635 11.6462 241.886 11.3271C242.137 11.0081 242.449 10.762 242.823 10.5889C243.196 10.4111 243.629 10.3223 244.121 10.3223C244.468 10.3223 244.787 10.3724 245.079 10.4727C245.37 10.5684 245.623 10.721 245.837 10.9307C246.051 11.1403 246.218 11.4092 246.336 11.7373C246.455 12.0654 246.514 12.4619 246.514 12.9268V17.8555H245.249V12.9883C245.249 12.6009 245.183 12.291 245.051 12.0586C244.924 11.8262 244.741 11.6576 244.504 11.5527C244.267 11.4434 243.989 11.3887 243.67 11.3887C243.297 11.3887 242.984 11.4548 242.734 11.5869C242.483 11.7191 242.283 11.9014 242.132 12.1338C241.982 12.3662 241.872 12.6328 241.804 12.9336C241.74 13.2298 241.708 13.5443 241.708 13.877ZM246.5 13.1797L245.653 13.4395C245.657 13.0339 245.723 12.6442 245.851 12.2705C245.983 11.8968 246.172 11.5641 246.418 11.2725C246.669 10.9808 246.977 10.7507 247.341 10.582C247.706 10.4089 248.123 10.3223 248.592 10.3223C248.989 10.3223 249.34 10.3747 249.645 10.4795C249.955 10.5843 250.215 10.7461 250.424 10.9648C250.638 11.179 250.8 11.4548 250.91 11.792C251.019 12.1292 251.074 12.5303 251.074 12.9951V17.8555H249.802V12.9814C249.802 12.5667 249.736 12.2454 249.604 12.0176C249.476 11.7852 249.294 11.6234 249.057 11.5322C248.825 11.4365 248.547 11.3887 248.223 11.3887C247.945 11.3887 247.699 11.4365 247.485 11.5322C247.271 11.6279 247.091 11.7601 246.945 11.9287C246.799 12.0928 246.687 12.2819 246.61 12.4961C246.537 12.7103 246.5 12.9382 246.5 13.1797ZM257.449 16.5908V12.7832C257.449 12.4915 257.39 12.2386 257.271 12.0244C257.157 11.8057 256.984 11.637 256.752 11.5186C256.519 11.4001 256.232 11.3408 255.89 11.3408C255.571 11.3408 255.291 11.3955 255.05 11.5049C254.813 11.6143 254.626 11.7578 254.489 11.9355C254.357 12.1133 254.291 12.3047 254.291 12.5098H253.026C253.026 12.2454 253.095 11.9834 253.231 11.7236C253.368 11.4639 253.564 11.2292 253.819 11.0195C254.079 10.8053 254.389 10.6367 254.749 10.5137C255.113 10.3861 255.519 10.3223 255.966 10.3223C256.503 10.3223 256.977 10.4134 257.388 10.5957C257.802 10.778 258.126 11.0537 258.358 11.4229C258.595 11.7874 258.714 12.2454 258.714 12.7969V16.2422C258.714 16.4883 258.734 16.7503 258.775 17.0283C258.821 17.3063 258.887 17.5456 258.973 17.7461V17.8555H257.654C257.59 17.7096 257.54 17.516 257.504 17.2744C257.467 17.0283 257.449 16.8005 257.449 16.5908ZM257.668 13.3711L257.681 14.2598H256.403C256.043 14.2598 255.722 14.2894 255.439 14.3486C255.157 14.4033 254.92 14.4876 254.728 14.6016C254.537 14.7155 254.391 14.859 254.291 15.0322C254.191 15.2008 254.14 15.3991 254.14 15.627C254.14 15.8594 254.193 16.0713 254.298 16.2627C254.402 16.4541 254.56 16.6068 254.769 16.7207C254.984 16.8301 255.246 16.8848 255.555 16.8848C255.943 16.8848 256.285 16.8027 256.581 16.6387C256.877 16.4746 257.112 16.2741 257.285 16.0371C257.463 15.8001 257.558 15.57 257.572 15.3467L258.112 15.9551C258.08 16.1465 257.994 16.3584 257.852 16.5908C257.711 16.8232 257.522 17.0465 257.285 17.2607C257.053 17.4704 256.775 17.6458 256.451 17.7871C256.132 17.9238 255.772 17.9922 255.371 17.9922C254.87 17.9922 254.43 17.8942 254.052 17.6982C253.678 17.5023 253.386 17.2402 253.177 16.9121C252.971 16.5794 252.869 16.208 252.869 15.7979C252.869 15.4014 252.946 15.0527 253.101 14.752C253.256 14.4466 253.48 14.1937 253.771 13.9932C254.063 13.7881 254.414 13.6331 254.824 13.5283C255.234 13.4235 255.692 13.3711 256.198 13.3711H257.668ZM265.595 10.459H266.743V17.6982C266.743 18.3499 266.611 18.9059 266.347 19.3662C266.083 19.8265 265.713 20.1751 265.239 20.4121C264.77 20.6536 264.228 20.7744 263.612 20.7744C263.357 20.7744 263.057 20.7334 262.71 20.6514C262.368 20.5739 262.031 20.4395 261.698 20.248C261.37 20.0612 261.095 19.8083 260.871 19.4893L261.534 18.7373C261.844 19.111 262.168 19.3708 262.505 19.5166C262.847 19.6624 263.184 19.7354 263.517 19.7354C263.918 19.7354 264.264 19.6602 264.556 19.5098C264.848 19.3594 265.073 19.1361 265.233 18.8398C265.397 18.5482 265.479 18.1882 265.479 17.7598V12.0859L265.595 10.459ZM260.502 14.2393V14.0957C260.502 13.5306 260.568 13.0179 260.7 12.5576C260.837 12.0928 261.031 11.694 261.281 11.3613C261.537 11.0286 261.844 10.7734 262.204 10.5957C262.564 10.4134 262.97 10.3223 263.421 10.3223C263.886 10.3223 264.292 10.4043 264.638 10.5684C264.989 10.7279 265.285 10.9626 265.527 11.2725C265.773 11.5778 265.966 11.9469 266.108 12.3799C266.249 12.8128 266.347 13.3027 266.402 13.8496V14.4785C266.351 15.0208 266.253 15.5085 266.108 15.9414C265.966 16.3743 265.773 16.7435 265.527 17.0488C265.285 17.3542 264.989 17.5889 264.638 17.7529C264.287 17.9124 263.877 17.9922 263.407 17.9922C262.965 17.9922 262.564 17.8988 262.204 17.7119C261.849 17.5251 261.543 17.263 261.288 16.9258C261.033 16.5885 260.837 16.1921 260.7 15.7363C260.568 15.276 260.502 14.777 260.502 14.2393ZM261.767 14.0957V14.2393C261.767 14.6084 261.803 14.9548 261.876 15.2783C261.954 15.6019 262.07 15.8867 262.225 16.1328C262.384 16.3789 262.587 16.5726 262.833 16.7139C263.079 16.8506 263.373 16.9189 263.715 16.9189C264.134 16.9189 264.481 16.8301 264.754 16.6523C265.028 16.4746 265.244 16.2399 265.404 15.9482C265.568 15.6566 265.695 15.3398 265.786 14.998V13.3506C265.736 13.0999 265.659 12.8584 265.554 12.626C265.454 12.389 265.321 12.1794 265.157 11.9971C264.998 11.8102 264.8 11.6621 264.563 11.5527C264.326 11.4434 264.048 11.3887 263.729 11.3887C263.382 11.3887 263.084 11.4616 262.833 11.6074C262.587 11.7487 262.384 11.9447 262.225 12.1953C262.07 12.4414 261.954 12.7285 261.876 13.0566C261.803 13.3802 261.767 13.7266 261.767 14.0957ZM271.834 17.9922C271.319 17.9922 270.851 17.9056 270.432 17.7324C270.018 17.5547 269.66 17.3063 269.359 16.9873C269.063 16.6683 268.835 16.29 268.675 15.8525C268.516 15.415 268.436 14.9365 268.436 14.417V14.1299C268.436 13.5283 268.525 12.9928 268.703 12.5234C268.88 12.0495 269.122 11.6484 269.427 11.3203C269.733 10.9922 270.079 10.7438 270.466 10.5752C270.854 10.4066 271.255 10.3223 271.67 10.3223C272.198 10.3223 272.654 10.4134 273.037 10.5957C273.424 10.778 273.741 11.0332 273.987 11.3613C274.233 11.6849 274.415 12.0677 274.534 12.5098C274.652 12.9473 274.712 13.4258 274.712 13.9453V14.5127H269.188V13.4805H273.447V13.3848C273.429 13.0566 273.36 12.7376 273.242 12.4277C273.128 12.1178 272.946 11.8626 272.695 11.6621C272.444 11.4616 272.102 11.3613 271.67 11.3613C271.382 11.3613 271.118 11.4229 270.877 11.5459C270.635 11.6644 270.428 11.8421 270.254 12.0791C270.081 12.3161 269.947 12.6055 269.851 12.9473C269.755 13.2891 269.708 13.6833 269.708 14.1299V14.417C269.708 14.7679 269.755 15.0983 269.851 15.4082C269.951 15.7135 270.095 15.9824 270.282 16.2148C270.473 16.4473 270.703 16.6296 270.972 16.7617C271.246 16.8939 271.556 16.96 271.902 16.96C272.349 16.96 272.727 16.8688 273.037 16.6865C273.347 16.5042 273.618 16.2604 273.85 15.9551L274.616 16.5635C274.456 16.805 274.254 17.0352 274.007 17.2539C273.761 17.4727 273.458 17.6504 273.098 17.7871C272.743 17.9238 272.321 17.9922 271.834 17.9922Z" fill="#4D5961"/>
<path d="M202 19.2227H275.224V19.9062H202V19.2227Z" fill="#4D5961"/>
<path d="M5.20855 21C4.63561 21 4.14514 20.8042 3.73713 20.4125C3.32912 20.0208 3.12512 19.55 3.12512 19V5C3.12512 4.45 3.32912 3.97917 3.73713 3.5875C4.14514 3.19583 4.63561 3 5.20855 3H19.7926C20.3655 3 20.856 3.19583 21.264 3.5875C21.672 3.97917 21.876 4.45 21.876 5V19C21.876 19.55 21.672 20.0208 21.264 20.4125C20.856 20.8042 20.3655 21 19.7926 21H5.20855ZM6.25027 17H18.7509L14.8444 12L11.7193 16L9.37542 13L6.25027 17Z" fill="#049C8A"/>
<path d="M184 17C185.25 17 186.312 16.5625 187.188 15.6875C188.062 14.8125 188.5 13.75 188.5 12.5C188.5 11.25 188.062 10.1875 187.188 9.3125C186.312 8.4375 185.25 8 184 8C182.75 8 181.688 8.4375 180.812 9.3125C179.938 10.1875 179.5 11.25 179.5 12.5C179.5 13.75 179.938 14.8125 180.812 15.6875C181.688 16.5625 182.75 17 184 17ZM184 15.2C183.25 15.2 182.613 14.9375 182.088 14.4125C181.562 13.8875 181.3 13.25 181.3 12.5C181.3 11.75 181.562 11.1125 182.088 10.5875C182.613 10.0625 183.25 9.8 184 9.8C184.75 9.8 185.387 10.0625 185.913 10.5875C186.438 11.1125 186.7 11.75 186.7 12.5C186.7 13.25 186.438 13.8875 185.913 14.4125C185.387 14.9375 184.75 15.2 184 15.2ZM184 20C181.567 20 179.35 19.3208 177.35 17.9625C175.35 16.6042 173.9 14.7833 173 12.5C173.9 10.2167 175.35 8.39583 177.35 7.0375C179.35 5.67917 181.567 5 184 5C186.433 5 188.65 5.67917 190.65 7.0375C192.65 8.39583 194.1 10.2167 195 12.5C194.1 14.7833 192.65 16.6042 190.65 17.9625C188.65 19.3208 186.433 20 184 20ZM184 18C185.883 18 187.613 17.5042 189.188 16.5125C190.763 15.5208 191.967 14.1833 192.8 12.5C191.967 10.8167 190.763 9.47917 189.188 8.4875C187.613 7.49583 185.883 7 184 7C182.117 7 180.388 7.49583 178.812 8.4875C177.238 9.47917 176.033 10.8167 175.2 12.5C176.033 14.1833 177.238 15.5208 178.812 16.5125C180.388 17.5042 182.117 18 184 18Z" fill="#5F6368"/>
</svg>
