<svg width="125" height="166" viewBox="0 0 125 166" fill="none" xmlns="http://www.w3.org/2000/svg">
<g clip-path="url(#clip0_2_127)">
<path d="M91.6041 159.606C91.2852 159.606 90.9828 159.421 90.8533 159.11C88.8567 154.407 87.0162 149.565 85.3917 144.716C83.9333 140.376 82.6111 135.93 81.4616 131.498C81.3487 131.065 81.6111 130.623 82.0463 130.51C82.4815 130.398 82.9267 130.659 83.0397 131.092C84.1825 135.488 85.4947 139.897 86.9398 144.201C88.5544 149.01 90.3782 153.816 92.3582 158.479C92.5343 158.892 92.3383 159.368 91.923 159.539C91.82 159.582 91.7104 159.602 91.6074 159.602L91.6041 159.606Z" fill="#1D1D1B"/>
<path d="M66.3093 159.771C65.9074 159.771 65.5585 159.477 65.5021 159.07C64.7978 154.014 64.2862 148.861 63.9772 143.758C63.7015 139.19 63.5819 134.556 63.6251 129.978C63.6284 129.529 63.9971 129.169 64.4489 129.176C64.9008 129.179 65.2595 129.546 65.2562 129.995C65.213 134.533 65.3326 139.131 65.605 143.662C65.9107 148.722 66.419 153.832 67.1166 158.849C67.1797 159.292 66.8675 159.701 66.4223 159.764C66.3857 159.771 66.3459 159.771 66.3093 159.771Z" fill="#1D1D1B"/>
<path d="M31.9222 87.1664C31.9222 87.1664 31.9122 87.1664 31.9089 87.1664C17.2451 86.922 10.066 86.1986 7.11262 72.5906C7.01628 72.1546 7.29866 71.722 7.73718 71.6262C8.1757 71.5304 8.61089 71.8111 8.70723 72.2471C10.0161 78.2815 12.1191 81.6076 15.7302 83.3713C19.4676 85.1945 25.0388 85.429 31.9388 85.5446C32.3873 85.5512 32.7461 85.9212 32.7394 86.3671C32.7328 86.8097 32.3674 87.1631 31.9255 87.1631L31.9222 87.1664Z" fill="#1D1D1B"/>
<path d="M7.07282 60.8025C6.17253 60.8025 5.44498 61.4697 5.44498 62.2954V64.7297H2.72084C1.21592 64.7297 -0.0032959 65.846 -0.0032959 67.2234V70.2059C-0.0032959 71.5832 1.21592 72.6996 2.72084 72.6996H8.0761C8.41828 72.6996 8.69734 72.4452 8.69734 72.1315V62.2921C8.69734 61.4697 7.96979 60.7992 7.0695 60.7992L7.07282 60.8025Z" fill="#1D1D1B"/>
<path d="M122.291 119.307C122.224 119.307 122.154 119.297 122.088 119.28C121.653 119.168 121.39 118.729 121.5 118.293C121.517 118.227 122.703 113.53 122.503 107.453C122.321 101.887 120.902 93.9733 115.188 87.9026C114.879 87.5756 114.899 87.0636 115.228 86.7565C115.557 86.4493 116.072 86.4691 116.381 86.7961C119.068 89.6531 121.091 93.1146 122.394 97.0847C123.43 100.246 124.018 103.73 124.134 107.449C124.334 113.761 123.131 118.501 123.081 118.699C122.988 119.066 122.656 119.307 122.294 119.307H122.291Z" fill="#1D1D1B"/>
<path d="M76.6581 166C100.543 166 119.905 164.471 119.905 162.585C119.905 160.699 100.543 159.17 76.6581 159.17C52.7732 159.17 33.4107 160.699 33.4107 162.585C33.4107 164.471 52.7732 166 76.6581 166Z" fill="black" fill-opacity="0.08"/>
<path d="M113.324 20.6818C113.324 20.6818 105.783 34.2006 97.2617 34.2006L90.3151 35.9016L65.9972 41.8534L55.3166 44.466C55.3166 44.466 33.1913 33.6325 33.1913 25.8938C33.1913 25.8938 37.5798 21.6958 46.5263 26.6435C45.4964 25.9037 36.54 19.1624 37.7791 7.6452C37.7791 7.6452 40.6827 7.72117 44.5928 8.7814C50.2138 10.3007 57.9012 13.8646 61.9476 22.1978C61.8778 21.9732 61.8147 21.7387 61.7549 21.4943C60.5921 16.9066 60.6719 8.2133 73.5019 0.312744C73.5019 0.312744 74.4254 0.791666 75.6081 2.16568C77.7376 4.63295 80.7175 10.0002 80.7175 20.6785C80.7175 20.6785 80.7441 20.6091 80.8072 20.4803C81.5481 18.8652 87.2821 7.62208 104.148 3.24242C104.148 3.24242 104.148 5.31665 103.906 8.00192C103.487 12.7449 102.325 19.3837 99.1088 19.8594C99.3546 19.8263 100.63 19.6744 102.331 19.5456C106.035 19.2615 111.753 19.1195 113.324 20.6818Z" fill="#2AB325"/>
<path d="M65.9973 41.8532L55.3167 44.4658C55.3167 44.4658 33.1913 33.6323 33.1913 25.8936C33.1913 25.8936 37.6064 21.6692 46.6027 26.6929C46.0446 26.3031 36.5101 19.5091 37.7792 7.64832C37.7792 7.64832 40.6827 7.72428 44.5929 8.78452C46.2207 16.4374 51.154 29.3484 66.0006 41.8565L65.9973 41.8532Z" fill="#1E9A1B"/>
<path d="M63.6686 25.6492L61.7484 21.4975C60.5857 16.9097 60.6654 8.21648 73.4954 0.315918C73.4954 0.315918 74.419 0.79484 75.6017 2.16885C71.4689 4.74182 63.1072 11.6911 63.6653 25.6459L63.6686 25.6492Z" fill="#1E9A1B"/>
<path d="M104.145 3.24561C104.145 3.24561 104.145 5.31983 103.903 8.0051C98.318 9.33617 88.3982 12.8538 80.4218 21.9037L80.8038 20.4868C81.5446 18.8717 87.2786 7.62857 104.145 3.24891V3.24561Z" fill="#1E9A1B"/>
<path d="M113.324 20.6817C113.324 20.6817 105.783 34.2005 97.2619 34.2005L90.3153 35.9015C94.4812 31.677 99.1654 24.6484 102.331 19.5488C106.036 19.2647 111.753 19.1227 113.324 20.685V20.6817Z" fill="#1E9A1B"/>
<path d="M121.404 67.6986C121.404 81.8615 107.673 104.222 94.8765 121.985C84.2656 136.716 62.2532 136.716 51.6391 121.985C38.8423 104.222 25.1119 81.8615 25.1119 67.6986C25.1119 41.1795 46.6692 26.9803 73.2594 26.9803C99.8497 26.9803 121.407 41.1829 121.407 67.6986H121.404Z" fill="#F22231"/>
<path d="M121.639 67.7019C121.639 81.8615 107.909 104.226 95.1124 121.985C84.5015 136.72 62.4891 136.72 51.8783 121.985C44.2939 111.462 36.3806 99.3141 31.1948 88.2196C35.0052 94.7329 39.2542 101.207 43.4069 107.165C53.6689 121.896 74.9404 121.896 85.1991 107.165C97.5641 89.402 110.839 67.0414 110.839 52.8785C110.839 47.389 109.946 42.4281 108.298 38.0121C116.563 44.8623 121.643 54.8338 121.643 67.7052L121.639 67.7019Z" fill="#D1131A"/>
<path d="M121.639 67.702C121.639 81.8616 107.909 104.226 95.1122 121.985C84.7306 136.396 63.4424 136.716 52.5957 122.927C64.0836 131.435 81.1194 129.48 90.0592 117.067C102.856 99.3042 116.586 76.9435 116.586 62.7807C116.586 52.5483 113.374 44.1424 107.899 37.6885C116.4 44.542 121.639 54.6291 121.639 67.702Z" fill="#C6101E"/>
<path d="M61.8447 39.6406C61.2866 41.2359 60.3265 42.3523 59.7052 42.1376C59.084 41.9229 59.0342 40.4564 59.5956 38.8611C60.1537 37.2658 61.1138 36.1494 61.735 36.3641C62.3563 36.5788 62.4061 38.0453 61.8447 39.6406Z" fill="#FFD328"/>
<path d="M87.8146 41.8764C88.4207 41.6247 88.3812 40.1571 87.7264 38.5985C87.0715 37.0398 86.0494 35.9803 85.4433 36.232C84.8372 36.4837 84.8767 37.9513 85.5315 39.5099C86.1863 41.0686 87.2085 42.1281 87.8146 41.8764Z" fill="#FFD328"/>
<path d="M73.256 56.9776C73.9128 56.9776 74.4453 55.6082 74.4453 53.9191C74.4453 52.2299 73.9128 50.8606 73.256 50.8606C72.5991 50.8606 72.0667 52.2299 72.0667 53.9191C72.0667 55.6082 72.5991 56.9776 73.256 56.9776Z" fill="#FFD328"/>
<path d="M101.095 53.8068C101.321 55.4814 100.979 56.9082 100.325 56.9941C99.6734 57.08 98.9592 55.7951 98.7333 54.1239C98.5074 52.4493 98.8496 51.0224 99.504 50.9366C100.158 50.8507 100.869 52.1355 101.095 53.8068Z" fill="#FFD328"/>
<path d="M101.428 105.332C100.577 106.795 100.351 108.245 100.923 108.572C101.491 108.899 102.644 107.978 103.491 106.518C104.341 105.055 104.567 103.605 103.996 103.278C103.424 102.951 102.275 103.872 101.428 105.332Z" fill="#FFD328"/>
<path d="M61.838 120.813C62.4161 122.402 62.3862 123.868 61.7649 124.089C61.1437 124.311 60.1769 123.208 59.5989 121.619C59.0208 120.03 59.0507 118.564 59.672 118.342C60.2899 118.121 61.26 119.224 61.838 120.813Z" fill="#FFD328"/>
<path d="M85.9966 120.813C85.4185 122.402 85.4484 123.868 86.0697 124.089C86.6876 124.311 87.6577 123.208 88.2357 121.619C88.8138 120.03 88.7839 118.564 88.1626 118.342C87.5447 118.121 86.5746 119.224 85.9966 120.813Z" fill="#FFD328"/>
<path d="M42.6629 50.2024C45.6669 46.2129 46.7186 41.949 45.0119 40.6787C43.3052 39.4084 39.4864 41.6127 36.4824 45.6021C33.4783 49.5916 32.4266 53.8555 34.1334 55.1258C35.8401 56.3961 39.6589 54.1918 42.6629 50.2024Z" fill="#FEFFFC"/>
<path d="M34.3803 61.3334C35.2941 60.1199 35.149 58.4769 34.0562 57.6635C32.9634 56.8501 31.3368 57.1745 30.4231 58.388C29.5094 59.6015 29.6545 61.2446 30.7472 62.0579C31.84 62.8713 33.4666 62.5469 34.3803 61.3334Z" fill="#FEFFFC"/>
<path d="M36.9087 89.6268C37.2641 91.2783 37.0349 92.7283 36.3904 92.8637C35.7459 93.0024 34.9353 91.7737 34.5798 90.1223C34.2244 88.4708 34.4536 87.0209 35.0981 86.8854C35.7426 86.7467 36.5532 87.9754 36.9087 89.6268Z" fill="#FFD328"/>
<path d="M108.268 89.8776C107.912 91.5291 108.142 92.979 108.786 93.1145C109.431 93.2499 110.241 92.0245 110.597 90.3731C110.952 88.7216 110.723 87.2716 110.079 87.1362C109.434 87.0008 108.623 88.2262 108.268 89.8776Z" fill="#FFD328"/>
<path d="M47.247 105.332C48.0974 106.795 48.3234 108.245 47.7519 108.572C47.1839 108.899 46.0311 107.978 45.1839 106.518C44.3335 105.055 44.1076 103.605 44.679 103.278C45.2504 102.951 46.3998 103.872 47.247 105.332Z" fill="#FFD328"/>
<path d="M36.9286 71.9033C36.7559 73.5845 36.0881 74.8924 35.4337 74.8263C34.7792 74.7603 34.3872 73.3466 34.5599 71.6655C34.7327 69.9843 35.4004 68.6763 36.0549 68.7424C36.7094 68.8084 37.1014 70.2221 36.9286 71.9033Z" fill="#FFD328"/>
<path d="M48.3103 53.5656C47.9881 55.2236 47.204 56.4655 46.5595 56.3433C45.915 56.2178 45.6526 54.7744 45.9715 53.1164C46.2938 51.4583 47.0778 50.2164 47.7223 50.3386C48.3668 50.4641 48.6292 51.9075 48.3103 53.5656Z" fill="#FFD328"/>
<path d="M108.032 41.0706C108.793 42.58 108.932 44.0399 108.344 44.3339C107.756 44.6279 106.663 43.6403 105.903 42.1308C105.142 40.6214 105.002 39.1615 105.59 38.8676C106.178 38.5736 107.271 39.5612 108.032 41.0706Z" fill="#FFD328"/>
<path d="M111.025 72.0156C111.198 73.6968 111.866 75.0047 112.52 74.9386C113.175 74.8726 113.567 73.4589 113.394 71.7778C113.221 70.0966 112.553 68.7886 111.899 68.8547C111.244 68.9207 110.852 70.3344 111.025 72.0156Z" fill="#FFD328"/>
<path d="M117.417 56.3796C117.772 58.031 117.543 59.481 116.899 59.6164C116.254 59.7551 115.444 58.5265 115.088 56.875C114.733 55.2236 114.962 53.7736 115.606 53.6382C116.251 53.5027 117.062 54.7281 117.417 56.3796Z" fill="#FFD328"/>
<path d="M85.8073 107.312C85.4663 107.536 85.1142 107.754 84.751 107.956C84.6546 108.012 84.5546 108.067 84.4582 108.122C84.1913 108.27 83.9208 108.41 83.6465 108.546C83.3945 108.668 83.1424 108.789 82.883 108.907C82.757 108.966 82.6273 109.025 82.4938 109.08C82.3641 109.136 82.2344 109.191 82.101 109.242C81.9675 109.298 81.8378 109.349 81.7044 109.401C81.5895 109.445 81.4746 109.489 81.3597 109.53C80.7926 109.74 80.2144 109.932 79.6214 110.101C79.5176 110.131 79.4138 110.16 79.3101 110.189C79.2174 110.215 79.121 110.237 79.0284 110.263C78.8912 110.3 78.7541 110.333 78.617 110.366C78.4057 110.418 78.1907 110.466 77.9758 110.514C77.8386 110.543 77.7015 110.573 77.5643 110.598C77.3197 110.646 77.0788 110.691 76.8342 110.731C76.7045 110.753 76.571 110.775 76.4413 110.797C76.2263 110.827 76.0151 110.856 75.8001 110.886C75.5518 110.915 75.3035 110.945 75.0588 110.967C75.0366 110.967 75.0144 110.967 74.9884 110.974C74.7141 110.996 74.4399 111.019 74.1656 111.033C73.7208 111.059 73.2724 111.074 72.8276 111.074C72.6942 111.074 72.557 111.074 72.4236 111.074C72.3421 111.074 72.2642 111.074 72.1827 111.066C72.0826 111.066 71.9788 111.066 71.8788 111.055C71.7342 111.055 71.5934 111.041 71.4488 111.037C71.219 111.022 70.9966 111.008 70.7743 110.989C70.6557 110.978 70.5445 110.971 70.4296 110.956C70.1664 110.93 69.9033 110.897 69.6438 110.86C69.5141 110.845 69.3881 110.823 69.2547 110.805C69.0508 110.775 68.8507 110.739 68.6505 110.705C68.5134 110.683 68.3762 110.657 68.2428 110.628C68.0686 110.595 67.8981 110.558 67.7239 110.521C67.5868 110.488 67.4497 110.455 67.3162 110.425C67.0753 110.366 66.8344 110.304 66.5972 110.237C66.4045 110.182 66.2117 110.123 66.019 110.064C66.0042 110.057 65.9856 110.053 65.9708 110.049C65.893 110.027 65.8151 110.002 65.741 109.976C65.5112 109.902 65.2851 109.825 65.059 109.74C64.8589 109.67 64.6662 109.592 64.4697 109.511C64.2399 109.419 64.0101 109.323 63.784 109.224C63.5542 109.125 63.3356 109.021 63.1132 108.911C62.8945 108.804 62.6758 108.69 62.4609 108.575C62.283 108.48 62.0976 108.376 61.9234 108.273C61.8641 108.236 61.8048 108.207 61.7492 108.17C61.5973 108.078 61.449 107.99 61.3045 107.894C61.2711 107.875 61.2415 107.853 61.2118 107.835C56.5974 104.846 53.6619 99.9343 54.0214 93.6993C54.2624 89.4875 56.5195 89.0305 60.0628 89.6017C63.4764 90.1471 68.0797 91.6395 73.2279 91.6395C78.743 91.6395 83.1387 90.0439 86.3373 89.668C89.2283 89.3253 91.1445 89.9776 92.0303 93.703C93.4054 99.4921 90.4848 104.26 85.8036 107.33L85.8073 107.312Z" fill="#A3041B"/>
<path d="M57.0473 83.467C59.9774 83.467 62.3527 82.7454 62.3527 81.8552C62.3527 80.965 59.9774 80.2434 57.0473 80.2434C54.1172 80.2434 51.7419 80.965 51.7419 81.8552C51.7419 82.7454 54.1172 83.467 57.0473 83.467Z" fill="#F98CCD"/>
<path d="M57.0474 80.4579C60.4215 80.4579 63.1567 77.7385 63.1567 74.3839C63.1567 71.0293 60.4215 68.3098 57.0474 68.3098C53.6733 68.3098 50.938 71.0293 50.938 74.3839C50.938 77.7385 53.6733 80.4579 57.0474 80.4579Z" fill="#1D1D1B"/>
<path d="M54.2832 73.9842C55.3455 73.9842 56.2067 73.1309 56.2067 72.0784C56.2067 71.0259 55.3455 70.1726 54.2832 70.1726C53.2209 70.1726 52.3597 71.0259 52.3597 72.0784C52.3597 73.1309 53.2209 73.9842 54.2832 73.9842Z" fill="white"/>
<path d="M59.8314 78.5917C60.413 78.5917 60.8845 78.1244 60.8845 77.548C60.8845 76.9716 60.413 76.5043 59.8314 76.5043C59.2498 76.5043 58.7783 76.9716 58.7783 77.548C58.7783 78.1244 59.2498 78.5917 59.8314 78.5917Z" fill="white"/>
<path d="M89.2987 80.4579C92.6728 80.4579 95.4081 77.7385 95.4081 74.3839C95.4081 71.0293 92.6728 68.3098 89.2987 68.3098C85.9246 68.3098 83.1893 71.0293 83.1893 74.3839C83.1893 77.7385 85.9246 80.4579 89.2987 80.4579Z" fill="#1D1D1B"/>
<path d="M86.5349 73.9842C87.5972 73.9842 88.4584 73.1309 88.4584 72.0784C88.4584 71.0259 87.5972 70.1726 86.5349 70.1726C85.4726 70.1726 84.6114 71.0259 84.6114 72.0784C84.6114 73.1309 85.4726 73.9842 86.5349 73.9842Z" fill="white"/>
<path d="M92.083 78.5917C92.6646 78.5917 93.1361 78.1244 93.1361 77.548C93.1361 76.9716 92.6646 76.5043 92.083 76.5043C91.5014 76.5043 91.0299 76.9716 91.0299 77.548C91.0299 78.1244 91.5014 78.5917 92.083 78.5917Z" fill="white"/>
<path d="M50.0081 61.9815C49.9582 61.9815 49.9117 61.9782 49.8619 61.9716C49.3071 61.8923 48.9251 61.3803 49.0048 60.8321C49.2739 58.9692 50.6825 57.3772 52.8717 56.459C55.4929 55.3591 58.5027 55.5243 60.3598 56.8719C60.8116 57.1989 60.9113 57.8297 60.5824 58.2789C60.2535 58.7281 59.619 58.8272 59.1672 58.5002C57.8848 57.5688 55.6191 57.4928 53.6591 58.3152C52.1442 58.9494 51.1775 59.9733 51.0113 61.1194C50.9383 61.6215 50.5064 61.9815 50.0114 61.9815H50.0081Z" fill="#1D1D1B" stroke="#1D1D1B" stroke-width="0.952206" stroke-miterlimit="10"/>
<path d="M89.2986 83.467C92.2288 83.467 94.6041 82.7454 94.6041 81.8552C94.6041 80.965 92.2288 80.2434 89.2986 80.2434C86.3685 80.2434 83.9932 80.965 83.9932 81.8552C83.9932 82.7454 86.3685 83.467 89.2986 83.467Z" fill="#F98CCD"/>
<path d="M96.3612 61.9816C95.8662 61.9816 95.431 61.6183 95.3612 61.1196C95.1951 59.9734 94.2284 58.9529 92.7135 58.3154C90.7534 57.493 88.4877 57.5689 87.2054 58.5004C86.7536 58.8273 86.1191 58.7283 85.7902 58.2791C85.4613 57.8299 85.5609 57.199 86.0128 56.872C87.8698 55.5277 90.8797 55.3593 93.5008 56.4592C95.6868 57.3774 97.0953 58.9694 97.3678 60.8322C97.4475 61.3838 97.0621 61.8924 96.5107 61.9717C96.4608 61.9783 96.4143 61.9816 96.3645 61.9816H96.3612Z" fill="#1D1D1B" stroke="#1D1D1B" stroke-width="0.952206" stroke-miterlimit="10"/>
<path d="M54.8315 158.268C55.0142 157.918 55.4195 157.261 56.2168 156.702C57.0939 156.088 57.9809 155.92 58.4028 155.867C59.2831 155.728 60.9043 155.579 62.7979 156.095C64.2132 156.478 65.2497 157.089 65.8942 157.538C66.7114 157.944 67.233 158.714 67.2529 159.553C67.2762 160.497 66.6516 161.376 65.6782 161.762H56.3995C56.2899 161.733 55.0375 161.386 54.6122 160.213C54.2535 159.232 54.7451 158.4 54.8249 158.268H54.8315Z" fill="#1D1D1B"/>
<path d="M103.594 158.304C103.411 157.954 103.006 157.297 102.209 156.739C101.332 156.124 100.445 155.956 100.023 155.903C99.1423 155.764 97.5211 155.616 95.6275 156.131C94.2122 156.514 93.1757 157.125 92.5312 157.574C91.714 157.98 91.1924 158.75 91.1725 159.589C91.1492 160.534 91.7738 161.412 92.7472 161.799H102.026C102.135 161.769 103.388 161.422 103.813 160.25C104.172 159.269 103.68 158.436 103.601 158.304H103.594Z" fill="#1D1D1B"/>
<path d="M118.49 118.286C119.739 116.717 121.52 115.822 122.593 116.182C122.742 116.212 122.895 116.268 123.054 116.354C124.666 117.236 125.217 120.241 124.287 123.062C123.357 125.883 121.297 127.455 119.686 126.573C118.075 125.691 119.393 123.878 120.327 121.054C120.314 120.826 120.307 120.608 120.304 120.393C120.178 120.559 120.058 120.753 119.922 120.988C119.31 122.045 118.722 122.653 117.985 122.269C116.942 121.728 117.171 119.944 118.493 118.283L118.49 118.286Z" fill="#1D1D1B"/>
<path d="M90.0626 94.2873C87.0627 97.0453 80.6344 98.9511 73.1862 98.9511C65.738 98.9511 58.9077 96.9264 56.0374 94.0264C56.353 90.565 58.3496 90.195 61.4259 90.6905C64.4856 91.1793 68.6116 92.517 73.2294 92.517C78.1694 92.517 82.1094 91.0868 84.9797 90.7499C87.5511 90.4428 89.2619 91.0142 90.0626 94.2873Z" fill="white"/>
<path d="M88.194 105.454C87.4675 106.129 86.6706 106.748 85.8107 107.311C85.4661 107.536 85.1139 107.754 84.7544 107.956C84.6544 108.012 84.558 108.067 84.4616 108.122C84.1911 108.27 83.9205 108.41 83.6499 108.546C83.3979 108.671 83.1422 108.789 82.8864 108.907C82.7604 108.966 82.627 109.025 82.4972 109.077C82.3675 109.132 82.2378 109.187 82.1081 109.239C81.9746 109.294 81.8412 109.346 81.7078 109.401C81.5966 109.445 81.4817 109.486 81.3631 109.53C80.796 109.74 80.2178 109.931 79.6285 110.097C79.521 110.127 79.4173 110.156 79.3135 110.186C79.2208 110.212 79.1244 110.234 79.0318 110.259C78.8947 110.296 78.7575 110.333 78.6204 110.366C78.4091 110.418 78.1941 110.466 77.9792 110.51C77.842 110.539 77.7049 110.569 77.5678 110.595C77.3231 110.643 77.0822 110.687 76.8376 110.727C76.7079 110.75 76.5745 110.772 76.4447 110.794C76.2298 110.82 76.0148 110.849 75.7998 110.879C75.5552 110.908 75.3069 110.937 75.0586 110.96C75.0363 110.96 75.0141 110.96 74.9881 110.967C74.7139 110.989 74.4396 111.011 74.1653 111.026C73.7206 111.052 73.2721 111.063 72.8273 111.063H72.4233C72.3418 111.063 72.2639 111.063 72.1824 111.055C72.0786 111.055 71.9786 111.055 71.8785 111.044C71.7339 111.041 71.5894 111.033 71.4485 111.026C71.2188 111.011 70.9927 110.996 70.774 110.978C70.6554 110.967 70.5405 110.956 70.4293 110.945C70.1624 110.919 69.903 110.886 69.6435 110.849C69.5101 110.834 69.3841 110.816 69.2544 110.794C69.0505 110.768 68.8504 110.731 68.6502 110.694C68.5131 110.672 68.376 110.646 68.2425 110.617C68.072 110.584 67.8978 110.547 67.7273 110.51C67.5902 110.477 67.4531 110.447 67.3196 110.414C67.0787 110.355 66.8378 110.289 66.5969 110.226C66.4079 110.171 66.2151 110.112 66.0224 110.053C66.0039 110.046 65.9891 110.042 65.9742 110.038C65.8927 110.016 65.8149 109.99 65.7407 109.965C65.5146 109.887 65.2848 109.81 65.0588 109.725C64.8623 109.655 64.6659 109.581 64.4694 109.5C64.2396 109.408 64.0099 109.312 63.7875 109.213C63.5577 109.11 63.3353 109.007 63.1129 108.896C62.8979 108.789 62.6793 108.675 62.4643 108.561C62.2827 108.461 62.1011 108.362 61.9269 108.259C61.8676 108.222 61.8083 108.192 61.7527 108.155C61.6007 108.063 61.4525 107.975 61.3042 107.879C61.2745 107.861 61.2449 107.842 61.2152 107.82C60.133 107.12 59.1471 106.317 58.2687 105.414C61.9269 103.209 67.3345 101.837 73.1831 101.837C79.0318 101.837 84.4862 103.386 88.194 105.454Z" fill="white"/>
<path d="M73.1868 98.8028C64.6176 98.8028 57.2568 96.5439 54.0544 93.3086C54.4065 89.4467 56.6341 89.034 60.0662 89.5868C63.4798 90.1321 68.0831 91.6245 73.2349 91.6245C78.7463 91.6245 83.1421 90.0289 86.3444 89.6531C89.2131 89.3104 91.1219 89.9479 92.0151 93.5997C88.6683 96.6766 81.4964 98.8028 73.1868 98.8028Z" fill="white"/>
<path d="M91.1885 91.2007C88.2346 92.2214 85.2361 93.0247 82.2784 93.5812C74.7397 95.0035 63.8281 95.7221 54.5992 91.1012C54.5733 91.1638 54.5362 91.2228 54.4843 91.2744C54.451 91.326 54.4176 91.3776 54.3917 91.4292C54.3694 91.4918 54.3435 91.5544 54.3323 91.6208C54.3249 91.6429 54.3138 91.665 54.3064 91.6871C54.3064 91.7166 54.299 91.7461 54.2953 91.7755C59.7362 94.495 65.7295 95.3978 71.3001 95.3978C75.3623 95.3978 79.1947 94.9188 82.4193 94.3071C85.4103 93.7433 88.4458 92.9326 91.4369 91.8971L91.1923 91.2007H91.1885Z" fill="#9DB1B1"/>
<path d="M68.5686 92.9475H67.1602C66.4232 92.9475 65.8259 93.5414 65.8259 94.2741V95.6781C65.8259 96.4107 66.4232 97.0046 67.1602 97.0046H68.5686C69.3055 97.0046 69.9029 96.4107 69.9029 95.6781V94.2741C69.9029 93.5414 69.3055 92.9475 68.5686 92.9475Z" fill="#8FA2A1"/>
<path d="M57.5123 93.3199L57.7038 92.3659C57.8366 91.7046 58.4863 91.2737 59.1514 91.4057L60.111 91.5962C60.7761 91.7282 61.2096 92.3741 61.0768 93.0354L60.8852 93.9894C60.7524 94.6507 60.1028 95.0816 59.4376 94.9496L58.4781 94.7592C57.8129 94.6271 57.3795 93.9812 57.5123 93.3199Z" fill="#8FA2A1"/>
<path d="M87.2817 91.1787L86.3222 91.3691C85.6557 91.5014 85.2233 92.1458 85.3564 92.8084L85.5479 93.7624C85.681 94.425 86.3291 94.8549 86.9956 94.7226L87.9551 94.5321C88.6215 94.3999 89.0539 93.7555 88.9209 93.0929L88.7293 92.1389C88.5963 91.4763 87.9482 91.0464 87.2817 91.1787Z" fill="#8FA2A1"/>
<path d="M78.8169 92.9475H77.4047C76.6678 92.9475 76.0704 93.5414 76.0704 94.2741V95.6781C76.0704 96.4107 76.6678 97.0046 77.4047 97.0046H78.8169C79.5538 97.0046 80.1512 96.4107 80.1512 95.6781V94.2741C80.1512 93.5414 79.5538 92.9475 78.8169 92.9475Z" fill="#8FA2A1"/>
<path d="M84.799 107.872C84.862 107.813 84.9361 107.776 85.0213 107.754C85.1251 107.713 85.2363 107.687 85.3401 107.654C85.366 107.639 85.3957 107.628 85.4216 107.614L85.4698 107.492C77.2676 104.382 68.4538 104.522 61.2857 107.883L61.3079 107.934C61.3079 107.934 61.3413 107.945 61.3598 107.949C61.4673 107.99 61.5748 108.034 61.6749 108.085C61.7824 108.141 61.8861 108.207 61.9825 108.281C62.0122 108.299 62.0381 108.321 62.0678 108.343C68.8134 105.344 76.9859 105.218 84.6729 107.989C84.71 107.942 84.7471 107.897 84.799 107.868V107.872Z" fill="#9DB1B1"/>
<path d="M78.2385 103.833H76.8301C76.0932 103.833 75.4958 104.427 75.4958 105.159V106.563C75.4958 107.296 76.0932 107.89 76.8301 107.89H78.2385C78.9754 107.89 79.5728 107.296 79.5728 106.563V105.159C79.5728 104.427 78.9754 103.833 78.2385 103.833Z" fill="#8FA2A1"/>
<path d="M69.9179 103.612H68.5057C67.7688 103.612 67.1714 104.206 67.1714 104.938V106.342C67.1714 107.075 67.7688 107.669 68.5057 107.669H69.9179C70.6548 107.669 71.2522 107.075 71.2522 106.342V104.938C71.2522 104.206 70.6548 103.612 69.9179 103.612Z" fill="#8FA2A1"/>
<path d="M86.5817 106.821C86.3704 106.972 86.1554 107.12 85.9367 107.264C85.5921 107.488 85.24 107.706 84.8804 107.908C84.7804 107.964 84.684 108.019 84.5876 108.074C84.3171 108.222 84.0465 108.362 83.7759 108.498C83.6128 108.579 83.4498 108.656 83.2867 108.734C83.0828 108.469 82.9939 108.115 83.0643 107.761L83.257 106.807C83.3905 106.147 84.0391 105.716 84.7025 105.849L85.6625 106.037C86.0998 106.125 86.4371 106.431 86.5817 106.821Z" fill="#8FA2A1"/>
<path d="M63.1424 108.933C62.9423 108.833 62.7347 108.73 62.5346 108.619C62.353 108.524 62.1713 108.42 61.9971 108.317C61.9378 108.28 61.8785 108.251 61.8229 108.214C61.671 108.122 61.5227 108.034 61.3745 107.938C61.3448 107.919 61.3152 107.901 61.2855 107.879C60.8185 107.577 60.3663 107.252 59.9364 106.913C60.0809 106.53 60.4145 106.232 60.8482 106.143L61.8044 105.955C62.4716 105.823 63.1202 106.254 63.2536 106.913L63.4463 107.868C63.5242 108.266 63.4019 108.656 63.1424 108.933Z" fill="#8FA2A1"/>
</g>
<defs>
<clipPath id="clip0_2_127">
<rect width="124.739" height="165.684" fill="white" transform="translate(0 0.316162)"/>
</clipPath>
</defs>
</svg>
