<svg width="108" height="158" viewBox="0 0 108 158" fill="none" xmlns="http://www.w3.org/2000/svg">
<path d="M62.5646 0.495038C61.1336 -0.601043 56.7888 1.80326 54.659 5.27202C53.9917 6.35879 53.5042 7.61119 53.2132 8.82265C52.9222 7.61119 52.4365 6.35879 51.7674 5.27202C49.6376 1.80326 45.2909 -0.599182 43.8618 0.495038C42.4494 1.57623 43.8711 6.07221 45.7747 8.95664C47.5987 11.7201 51.0371 14.7794 52.5922 13.9216C52.8554 13.7764 53.0612 13.5177 53.2132 13.1753C53.3652 13.5159 53.5709 13.7764 53.8341 13.9216C55.3912 14.7794 58.8277 11.7201 60.6517 8.95664C62.5553 6.07221 63.977 1.57623 62.5646 0.495038Z" fill="#2259C6"/>
<path d="M66.5384 11.3032C68.6904 9.11292 70.4235 6.22663 69.569 5.01332C68.531 3.53761 63.6671 4.52575 60.6013 7.19431C59.7134 7.96659 58.9312 8.91938 58.314 9.90195C58.1898 9.89078 58.0656 9.87962 57.9414 9.86845C57.2723 6.02938 55.3334 0 53.0442 0C50.755 0 48.7865 6.1187 48.1303 9.95219C48.0914 9.95591 48.0543 9.95964 48.0154 9.96522C47.1442 8.79842 45.9598 7.65582 44.6456 6.84818C41.1849 4.72115 36.2247 4.54809 35.4425 6.17453C34.8252 7.45856 36.8067 9.86845 39.1589 11.6568C16.8491 17.9393 0.489258 38.5061 0.489258 62.9102C0.489258 92.3072 24.2264 116.138 53.5076 116.138C82.7888 116.138 106.526 92.3072 106.526 62.9102C106.526 38.026 89.5174 17.1335 66.5365 11.3032H66.5384Z" fill="#2D69C9"/>
<path d="M106.528 62.9122C106.528 92.3073 82.791 116.138 53.508 116.138C36.8479 116.138 21.9839 108.425 12.2655 96.3566C21.3685 103.746 32.9535 108.17 45.5709 108.17C74.854 108.17 98.5911 84.3388 98.5911 54.9438C98.5911 42.2746 94.1814 30.6402 86.8245 21.5031C98.8413 31.2617 106.528 46.1844 106.528 62.9104V62.9122Z" fill="#2D69C9"/>
<g opacity="0.5">
<path d="M14.0915 32.7876C11.0312 37.0249 9.83195 41.3925 11.4131 42.5444C12.9942 43.6963 16.757 41.1934 19.8173 36.9561C22.8775 32.7187 24.0768 28.3512 22.4957 27.1993C20.9146 26.0473 17.1518 28.5503 14.0915 32.7876Z" fill="#FEFFFC"/>
<path d="M6.59165 45.9352C5.60925 47.2936 5.67969 49.0261 6.7455 49.8021C7.81132 50.5781 9.47214 50.1073 10.4545 48.747C11.4369 47.3885 11.3665 45.656 10.3007 44.88C9.23488 44.104 7.57406 44.5748 6.59165 45.9352Z" fill="#FEFFFC"/>
</g>
<path d="M106.528 62.9121C106.528 92.3071 82.7909 116.138 53.5115 116.138C40.6846 116.138 28.9217 111.564 19.7538 103.955C28.2711 109.273 38.414 112.36 49.302 112.36C79.4414 112.36 103.877 88.7081 103.877 59.5289C103.877 45.8716 98.5242 33.424 89.7344 24.0449C100.07 33.7589 106.528 47.5762 106.528 62.9102V62.9121Z" fill="#1549B0"/>
<path d="M95.4751 109.431C88.8337 109.431 81.7085 105.864 75.903 99.6244C75.5972 99.295 75.6101 98.7777 75.9345 98.465C76.257 98.1542 76.7668 98.1673 77.0726 98.4967C82.5741 104.411 89.273 107.79 95.4732 107.792C95.5233 107.792 95.5715 107.792 95.6197 107.792C99.3287 107.76 102.485 106.504 104.508 104.254C107.588 100.828 105.249 89.7727 102.376 83.1106C102.198 82.6956 102.382 82.2118 102.789 82.0294C103.197 81.847 103.672 82.035 103.85 82.45C105.03 85.1892 106.539 89.7466 107.229 94.3208C108.029 99.6244 107.512 103.339 105.694 105.362C103.366 107.95 99.794 109.396 95.6327 109.431C95.5789 109.431 95.5252 109.431 95.4732 109.431H95.4751Z" fill="#1D1D1B"/>
<path d="M41.4796 55.0071C42.3629 51.6484 40.3669 48.2068 37.0214 47.32C33.6759 46.4332 30.2478 48.4371 29.3645 51.7958C28.4812 55.1545 30.4772 58.5962 33.8227 59.483C37.1682 60.3698 40.5963 58.3659 41.4796 55.0071Z" fill="#1D1D1B"/>
<path d="M37.6507 59.2181C38.7399 59.2181 39.6229 58.3349 39.6229 57.2455C39.6229 56.1561 38.7399 55.2729 37.6507 55.2729C36.5615 55.2729 35.6785 56.1561 35.6785 57.2455C35.6785 58.3349 36.5615 59.2181 37.6507 59.2181Z" fill="white"/>
<path d="M74.5878 54.8415C75.3826 51.4606 73.2969 48.0729 69.9293 47.2749C66.5617 46.477 63.1874 48.5709 62.3925 51.9518C61.5977 55.3327 63.6834 58.7204 67.051 59.5183C70.4186 60.3163 73.7929 58.2224 74.5878 54.8415Z" fill="#1D1D1B"/>
<path d="M65.3429 58.1389C66.4321 58.1389 67.3151 57.2557 67.3151 56.1663C67.3151 55.0769 66.4321 54.1937 65.3429 54.1937C64.2537 54.1937 63.3707 55.0769 63.3707 56.1663C63.3707 57.2557 64.2537 58.1389 65.3429 58.1389Z" fill="white"/>
<path d="M31.7749 66.2731C23.2669 66.2731 16.3438 59.3225 16.3438 50.7809C16.3438 46.6739 17.9397 43.2479 20.9611 40.8752C23.7229 38.7054 27.4616 37.5591 31.7749 37.5591C36.0882 37.5591 39.8269 38.7054 42.5888 40.8752C45.6101 43.2479 47.2061 46.6739 47.2061 50.7809C47.2061 59.3225 40.2829 66.2731 31.7749 66.2731ZM31.7749 39.7103C25.6451 39.7103 18.4865 42.6096 18.4865 50.7809C18.4865 58.1371 24.4477 64.1218 31.7749 64.1218C39.1022 64.1218 45.0633 58.1371 45.0633 50.7809C45.0633 42.6096 37.9048 39.7103 31.7749 39.7103Z" fill="#1D1D1B"/>
<path d="M72.3313 66.2729C63.8233 66.2729 56.9001 59.3224 56.9001 50.7808C56.9001 46.6737 58.4961 43.2478 61.5174 40.8751C64.2793 38.7053 68.018 37.559 72.3313 37.559C76.6446 37.559 80.3833 38.7053 83.1452 40.8751C86.1665 43.2478 87.7625 46.6737 87.7625 50.7808C87.7625 59.3224 80.8393 66.2729 72.3313 66.2729ZM72.3313 39.7102C66.2015 39.7102 59.0429 42.6095 59.0429 50.7808C59.0429 58.137 65.0041 64.1217 72.3313 64.1217C79.6586 64.1217 85.6197 58.137 85.6197 50.7808C85.6197 42.6095 78.4612 39.7102 72.3313 39.7102Z" fill="#1D1D1B"/>
<path d="M57.7433 52.5095C57.2614 52.5095 56.8722 52.1168 56.8722 51.6348C56.8722 51.5641 56.6683 51.2329 55.671 50.9147C54.7164 50.6113 53.3614 50.4383 51.9509 50.4383C48.7034 50.4383 47.0277 51.2775 47.0277 51.6348C47.0277 52.1187 46.6366 52.5095 46.1565 52.5095C45.6764 52.5095 45.2853 52.1168 45.2853 51.6348C45.2853 49.4613 48.7293 48.6871 51.9527 48.6871C55.1761 48.6871 58.6201 49.4613 58.6201 51.6348C58.6201 52.1187 58.229 52.5095 57.7489 52.5095H57.7433Z" fill="#1D1D1B"/>
<path d="M99.7198 78.0861L103.117 74.4238C103.546 73.9623 103.262 72.9964 102.482 72.2688L94.0794 64.4139C93.3009 63.6863 92.3222 63.4704 91.894 63.9319L88.4963 67.5942L99.718 78.0861H99.7198Z" fill="#EF492D"/>
<path d="M72.4106 106.804C70.4569 95.3906 61.1667 96.2895 61.1667 96.2895L60.8312 98.1113L60.7404 98.6082L60.2511 101.277L60.1528 101.813L59.9211 103.071L59.9119 103.117C59.9119 103.117 59.9156 103.102 59.9174 103.093L59.8433 103.491L58.7385 109.504L64.6163 108.343H64.6107L65.2891 108.209C65.2817 108.211 65.2706 108.212 65.2613 108.214L65.3929 108.188L65.7507 108.117L66.24 108.021L70.2382 107.232L70.6886 107.142L72.4069 106.804H72.4106Z" fill="#DCC39D"/>
<path d="M94.6722 79.2882L70.7423 104.366C70.7108 104.439 70.6867 104.513 70.6737 104.587C70.6737 104.589 70.6552 104.742 70.6571 104.818C70.6571 104.818 70.6571 104.818 70.6571 104.822C70.6571 104.829 70.6589 104.835 70.6589 104.842C70.6589 104.881 70.6645 104.921 70.67 104.96C70.67 104.974 70.6756 104.989 70.6774 105.004C70.6774 105.012 70.6793 105.017 70.6811 105.025C70.6811 105.025 70.6811 105.028 70.6811 105.032C70.6867 105.06 70.7034 105.133 70.7052 105.14C70.7052 105.144 70.7312 105.226 70.733 105.233C70.7368 105.248 70.7831 105.369 70.7979 105.404C70.8053 105.421 70.8127 105.436 70.8202 105.451C70.8313 105.479 70.8443 105.505 70.8591 105.533C70.8684 105.549 70.8758 105.564 70.885 105.583C70.8999 105.609 71.0834 105.912 71.1112 105.951C71.1149 105.957 71.1186 105.961 71.1223 105.968C71.1464 106.002 71.1705 106.035 71.1946 106.069C71.2039 106.082 71.2632 106.158 71.2836 106.184C71.2891 106.19 71.304 106.208 71.3077 106.214C71.354 106.272 71.5486 106.495 71.582 106.532C71.5876 106.538 71.5931 106.543 71.5987 106.551C71.6302 106.584 71.7822 106.739 71.8137 106.77C71.8174 106.774 71.8211 106.778 71.8248 106.781C71.8545 106.811 71.9156 106.869 71.9193 106.871C71.9193 106.871 71.9731 106.921 71.9972 106.941C72.0102 106.953 72.0194 106.962 72.0324 106.973C72.0398 106.979 72.0454 106.984 72.0528 106.99C72.0639 106.999 72.0732 107.008 72.0806 107.016C72.088 107.021 72.0917 107.025 72.0973 107.031C72.0991 107.031 72.101 107.035 72.1029 107.036C72.1084 107.04 72.1158 107.048 72.1195 107.051C72.1232 107.053 72.1232 107.055 72.1251 107.057C72.1344 107.064 72.1418 107.072 72.1473 107.075C72.1473 107.075 72.1486 107.075 72.151 107.075C72.1529 107.077 72.1548 107.079 72.1566 107.081C72.1622 107.085 72.1659 107.088 72.1659 107.088L96.7853 81.2682L94.6667 79.2882H94.6722Z" fill="#E0A535"/>
<path d="M85.5618 70.769L60.9424 96.5892C60.9424 96.5892 60.9461 96.5948 60.9516 96.6023C60.9516 96.6023 60.9529 96.6035 60.9554 96.606C60.9628 96.6171 61.3669 97.1084 61.3965 97.1401C61.3965 97.1401 61.4373 97.1829 61.4447 97.1903C61.4855 97.2331 61.5281 97.2759 61.5745 97.3187C61.5874 97.3317 61.6004 97.3448 61.6152 97.3578C61.6189 97.3634 61.7561 97.4843 61.7635 97.4918C61.7876 97.5122 61.8618 97.5737 61.8747 97.5848C61.8914 97.5997 61.973 97.6611 61.9952 97.6779C62.0119 97.6909 62.0972 97.7523 62.1213 97.7691C62.1398 97.7821 62.1583 97.7932 62.1769 97.8063C62.201 97.823 62.2288 97.8398 62.2547 97.8565C62.2733 97.8677 62.3659 97.9235 62.3919 97.9384C62.4123 97.9496 62.5068 98.0017 62.5365 98.0166C62.5569 98.0259 62.5773 98.037 62.5976 98.0463C62.6273 98.0612 62.7274 98.1059 62.7496 98.1152C62.7849 98.1301 62.8201 98.1431 62.8534 98.1543C62.8683 98.1598 62.8831 98.1673 62.8998 98.1729H62.9016C62.9813 98.2008 63.0629 98.2231 63.1426 98.2436C63.1519 98.2454 63.1611 98.2492 63.1685 98.251C63.1741 98.251 63.1797 98.2529 63.1834 98.2529C63.1834 98.2529 63.1908 98.2529 63.1945 98.2547C63.2575 98.2678 63.3205 98.2789 63.3854 98.2882C63.391 98.2882 63.3965 98.2901 63.4021 98.2901C63.4151 98.2901 63.4299 98.292 63.4447 98.2938C63.5115 98.3013 63.5782 98.305 63.6468 98.3069C63.6579 98.3069 63.669 98.3069 63.6783 98.3069C63.7543 98.3069 63.8303 98.3031 63.9081 98.2957C63.9267 98.2957 63.9452 98.292 63.9619 98.2901C64.0416 98.2808 64.1231 98.2678 64.2029 98.2492L88.1328 73.1714L85.5581 70.7653L85.5618 70.769Z" fill="#FCB93B"/>
<path d="M65.3967 108.19L64.7424 107.578L64.5551 107.401L64.2271 107.096L63.2317 106.165L63.0296 105.977L62.0435 105.054L61.8415 104.865L61.0352 104.111L60.8461 103.934L60.518 103.627L60.329 103.45L59.9193 103.067C59.9193 103.067 59.9156 103.082 59.9156 103.089C59.8693 103.35 59.847 103.465 59.797 103.735V103.739L58.6144 109.238C58.6218 109.34 58.6681 109.433 58.7386 109.5C58.7386 109.5 58.7404 109.502 58.7423 109.504C58.8146 109.573 58.9128 109.614 59.0166 109.614L64.6108 108.341L64.7627 108.306C64.95 108.272 65.165 108.229 65.2892 108.205C65.354 108.194 65.3948 108.185 65.3948 108.185" fill="#404041"/>
<path d="M88.105 73.1472L64.177 98.2249C64.177 98.2249 64.1807 98.2305 64.1844 98.2398C64.1863 98.2435 64.1881 98.2491 64.1918 98.2528C64.1974 98.2621 64.2011 98.2714 64.2104 98.2863C64.2159 98.2956 64.2215 98.3068 64.2271 98.318C64.2345 98.331 64.2419 98.344 64.2493 98.3589C64.2586 98.3775 64.2678 98.3943 64.2808 98.4147C64.2864 98.424 64.2919 98.4352 64.2975 98.4445C64.3105 98.4668 64.3216 98.4873 64.3364 98.5152C64.3587 98.5562 64.3846 98.599 64.4124 98.6473C64.418 98.6585 64.4254 98.6697 64.4328 98.6809C64.4439 98.7032 64.4569 98.7236 64.4699 98.746C64.4773 98.7571 64.4847 98.7683 64.4903 98.7795C64.5032 98.8018 64.5181 98.8241 64.531 98.8483C64.5477 98.8762 64.5663 98.906 64.5829 98.9339C64.6033 98.9674 64.6256 99.0009 64.646 99.0344C64.6552 99.0512 64.6664 99.0661 64.6756 99.0809C64.6793 99.0884 64.6849 99.0958 64.6886 99.1014C64.722 99.1535 64.7572 99.2093 64.7943 99.2652C64.8035 99.2782 64.8109 99.2912 64.8202 99.3043C64.8202 99.308 64.8258 99.3136 64.8276 99.3173C64.861 99.3675 64.8962 99.4196 64.9296 99.4717C64.9518 99.5034 64.9722 99.535 64.9944 99.5685C65.0408 99.6355 65.089 99.7062 65.139 99.7769C65.1409 99.7806 65.1446 99.7825 65.1464 99.7881C65.1965 99.8588 65.2465 99.9295 65.3003 100.002C65.3151 100.023 65.3318 100.043 65.3466 100.064C65.3985 100.132 65.4504 100.203 65.5042 100.272C65.5301 100.305 65.5561 100.339 65.582 100.372C65.6339 100.439 65.6877 100.506 65.7414 100.575C65.7581 100.596 65.7729 100.616 65.7896 100.637C65.8026 100.653 65.8174 100.67 65.8304 100.687C65.8527 100.715 65.8767 100.741 65.899 100.769C65.9194 100.791 66.0195 100.912 66.0306 100.923L66.0325 100.927C66.038 100.934 66.0454 100.942 66.0528 100.947C66.0899 100.992 66.1307 101.037 66.1678 101.081C66.1974 101.115 66.3272 101.26 66.3624 101.299C66.3754 101.312 66.3846 101.325 66.3976 101.34C66.3995 101.34 66.4013 101.344 66.405 101.346C66.4217 101.364 66.4402 101.383 66.4569 101.403C66.481 101.428 66.5014 101.452 66.5255 101.478C66.6163 101.575 66.7109 101.671 66.8073 101.768C66.8295 101.79 66.8536 101.813 66.8758 101.835C66.9518 101.91 67.0278 101.984 67.1057 102.058C67.1187 102.07 67.1316 102.083 67.1446 102.096L67.1557 102.107C67.2095 102.157 67.2632 102.207 67.3188 102.256C67.3244 102.261 67.3281 102.263 67.3318 102.267C67.3374 102.271 67.3411 102.276 67.3448 102.28C67.393 102.321 67.4412 102.365 67.4912 102.406C67.5061 102.419 67.5227 102.431 67.5376 102.444L92.0032 76.7871L88.105 73.1416V73.1472Z" fill="#E0A535"/>
<path d="M91.9974 76.7871L67.4948 102.408H67.4911C67.5356 102.451 67.5819 102.49 67.6283 102.529C67.6931 102.585 67.7599 102.639 67.8266 102.693C67.9749 102.814 68.1287 102.931 68.2863 103.046C68.3567 103.097 68.4272 103.147 68.4976 103.195C68.5829 103.255 68.6718 103.313 68.7589 103.37C68.7682 103.376 68.7793 103.383 68.7886 103.389C68.7997 103.394 68.809 103.402 68.8183 103.409C68.8924 103.456 68.9666 103.502 69.0407 103.547C69.3391 103.726 69.6505 103.893 69.9749 104.044C70.0565 104.081 70.1399 104.118 70.2233 104.154C70.3883 104.224 70.5569 104.29 70.7275 104.349L94.6574 79.2714L91.9974 76.7833V76.7871Z" fill="#FCB93B"/>
<path d="M88.9516 67.1079L85.5612 70.7632L96.7782 81.2499L100.169 77.5946L88.9516 67.1079Z" fill="#929497"/>
<path d="M86.5455 69.7205L85.9984 70.3101L97.2136 80.7987L97.7607 80.2091L86.5455 69.7205Z" fill="#E6E7E8"/>
<path d="M87.5487 68.6184L87.0017 69.2081L98.2187 79.6948L98.7657 79.1051L87.5487 68.6184Z" fill="#E6E7E8"/>
<path d="M88.5587 67.5516L88.0116 68.1412L99.2268 78.6299L99.7739 78.0403L88.5587 67.5516Z" fill="#E6E7E8"/>
<path d="M45.6766 152.737C45.1761 152.737 44.7387 152.367 44.6682 151.853C43.9305 146.492 43.3911 141.03 43.0686 135.621C42.7794 130.778 42.6552 125.864 42.6997 121.014C42.7053 120.452 43.1613 120 43.7192 120H43.7285C44.292 120.006 44.7442 120.467 44.7387 121.033C44.6942 125.836 44.8184 130.704 45.1038 135.498C45.4245 140.853 45.9565 146.261 46.6887 151.572C46.7665 152.132 46.3754 152.65 45.8175 152.726C45.7693 152.734 45.7229 152.735 45.6766 152.735V152.737Z" fill="#1D1D1B"/>
<path d="M33.5907 150.979C33.7817 150.608 34.208 149.911 35.0458 149.319C35.9671 148.667 36.8976 148.491 37.3387 148.435C38.2618 148.286 39.9634 148.132 41.9505 148.677C43.4333 149.084 44.5232 149.73 45.198 150.205C46.0562 150.636 46.6048 151.451 46.6252 152.339C46.6475 153.34 45.995 154.271 44.9755 154.68H35.2423C35.1274 154.65 33.815 154.282 33.3683 153.041C32.9939 152 33.5055 151.12 33.5926 150.979H33.5907Z" fill="#1D1D1B"/>
<path d="M62.8521 152.737C62.8058 152.737 62.7594 152.734 62.7112 152.728C62.1533 152.65 61.764 152.134 61.84 151.574C62.5704 146.263 63.1042 140.855 63.4249 135.5C63.7122 130.706 63.8345 125.84 63.79 121.035C63.7845 120.469 64.2367 120.008 64.8002 120.002H64.8095C65.3674 120.002 65.8234 120.454 65.829 121.016C65.8735 125.869 65.7493 130.782 65.4601 135.624C65.1376 141.032 64.5982 146.494 63.8605 151.855C63.79 152.367 63.3526 152.739 62.8521 152.739V152.737Z" fill="#1D1D1B"/>
<path d="M74.9374 150.979C74.7464 150.608 74.3201 149.911 73.4823 149.319C72.5611 148.667 71.6306 148.491 71.1894 148.435C70.2663 148.286 68.5647 148.132 66.5777 148.677C65.0948 149.084 64.0049 149.73 63.3302 150.205C62.472 150.636 61.9233 151.451 61.9029 152.339C61.8807 153.34 62.5331 154.271 63.5526 154.68H73.2858C73.4007 154.65 74.7131 154.282 75.1598 153.041C75.5342 152 75.0226 151.12 74.9355 150.979H74.9374Z" fill="#1D1D1B"/>
<path d="M54.733 157.703C77.9497 157.703 96.7706 156.203 96.7706 154.352C96.7706 152.501 77.9497 151 54.733 151C31.5162 151 12.6953 152.501 12.6953 154.352C12.6953 156.203 31.5162 157.703 54.733 157.703Z" fill="black" fill-opacity="0.08"/>
<path d="M76.3792 74.2842H33.1627C31.7121 74.2842 30.5361 75.4648 30.5361 76.9211V124.246C30.5361 125.702 31.7121 126.883 33.1627 126.883H76.3792C77.8298 126.883 79.0058 125.702 79.0058 124.246V76.9211C79.0058 75.4648 77.8298 74.2842 76.3792 74.2842Z" fill="#DBAC75"/>
<path fill-rule="evenodd" clip-rule="evenodd" d="M33.1629 75.0285C32.1218 75.0285 31.2778 75.8759 31.2778 76.9211V124.246C31.2778 125.291 32.1218 126.139 33.1629 126.139H76.3794C77.4206 126.139 78.2645 125.291 78.2645 124.246V76.9211C78.2645 75.8759 77.4206 75.0285 76.3794 75.0285H33.1629ZM29.7949 76.9211C29.7949 75.0537 31.3028 73.5398 33.1629 73.5398H76.3794C78.2395 73.5398 79.7474 75.0537 79.7474 76.9211V124.246C79.7474 126.114 78.2395 127.627 76.3794 127.627H33.1629C31.3028 127.627 29.7949 126.114 29.7949 124.246V76.9211Z" fill="#DBAC75" stroke="#B48044" stroke-width="2.85662" stroke-miterlimit="10"/>
<path d="M12.119 112.418C18.7604 112.418 25.8857 108.851 31.6911 102.611C31.997 102.282 31.984 101.764 31.6596 101.452C31.3371 101.141 30.8273 101.154 30.5215 101.483C25.02 107.397 18.3211 110.777 12.1209 110.779C12.0708 110.779 12.0226 110.779 11.9744 110.779C8.26539 110.747 5.10872 109.491 3.08645 107.241C0.00577162 103.815 2.34501 92.7595 5.21808 86.0974C5.39602 85.6824 5.21252 85.1986 4.80473 85.0162C4.39694 84.8338 3.92242 85.0218 3.74447 85.4368C2.56373 88.176 1.05491 92.7334 0.365369 97.3076C-0.435384 102.611 0.0817691 106.326 1.90014 108.348C4.22826 110.937 7.80013 112.383 11.9615 112.418C12.0152 112.418 12.069 112.418 12.1209 112.418H12.119Z" fill="#1D1D1B"/>
<path d="M27.3867 98.2139C26.534 100.248 26.6081 102.434 27.5201 103.274C27.6276 103.402 27.7629 103.519 27.9279 103.624C29.6258 104.703 32.8084 103.637 35.0346 101.243C37.2626 98.8503 37.6926 96.0348 35.9947 94.9573C34.2969 93.878 33.2459 96.1092 31.0197 98.5024C30.7936 98.6084 30.5785 98.7201 30.3709 98.8336C30.4636 98.627 30.5878 98.4056 30.7435 98.1506C31.4405 97.0025 31.7167 96.1148 30.9567 95.6086C29.8872 94.894 28.2875 96.0608 27.3848 98.2158L27.3867 98.2139Z" fill="#1D1D1B"/>
<path d="M58.8126 69.0669L58.3121 67.9243C57.7208 66.5752 56.3918 65.7024 54.9219 65.7024C53.4539 65.7024 52.123 66.5733 51.5317 67.9243L51.0312 69.0669C50.9348 69.2865 50.718 69.4298 50.4788 69.4298H40.5955C40.2618 69.4298 39.9912 69.7015 39.9912 70.0365V74.3985C39.9912 74.7334 40.2618 75.0051 40.5955 75.0051H68.1028C68.4365 75.0051 68.7071 74.7334 68.7071 74.3985V70.0365C68.7071 69.7015 68.4365 69.4298 68.1028 69.4298H59.365C59.1259 69.4298 58.909 69.2884 58.8126 69.0669ZM55.048 68.691C54.5104 68.7729 54.0544 68.3151 54.136 67.7755C54.1879 67.4386 54.4604 67.1651 54.7959 67.113C55.3334 67.0311 55.7894 67.4889 55.7078 68.0285C55.6559 68.3654 55.3835 68.6389 55.048 68.691Z" fill="#A4B3CE"/>
<path d="M68.1028 69.4298H59.365C59.1259 69.4298 58.909 69.2884 58.8126 69.0669L58.3121 67.9243C57.7208 66.5752 56.3918 65.7024 54.9219 65.7024C53.4539 65.7024 52.123 66.5733 51.5317 67.9243L51.0312 69.0669C50.9348 69.2865 50.718 69.4298 50.4788 69.4298H40.5955C40.2618 69.4298 39.9912 69.7015 39.9912 70.0365V70.3249C39.9912 69.9899 40.2618 69.7183 40.5955 69.7183H50.4788C50.718 69.7183 51.211 69.5768 51.2981 69.3554L51.7578 68.2128C52.3009 66.8636 53.452 65.9908 54.9201 65.9908C56.3881 65.9908 57.4484 66.8617 57.9915 68.2128L58.4512 69.3554C58.5401 69.575 59.124 69.7183 59.3631 69.7183H68.101C68.4346 69.7183 68.7052 69.9899 68.7052 70.3249V70.0365C68.7052 69.7015 68.4346 69.4298 68.101 69.4298H68.1028Z" fill="#DEE6F3"/>
<path d="M68.377 69.4985L68.2268 73.747C68.212 74.1825 67.8542 74.5286 67.4205 74.5286H41.2756C40.8418 74.5286 40.4841 74.1825 40.4693 73.747L40.3191 69.4985C40.1245 69.599 39.991 69.8 39.991 70.0345V74.3965C39.991 74.7314 40.2617 75.0031 40.5953 75.0031H68.1026C68.4363 75.0031 68.7069 74.7314 68.7069 74.3965V70.0345C68.7069 69.8 68.5734 69.599 68.3788 69.4985H68.377Z" fill="#536584"/>
<path d="M54.9219 68.9794C55.5151 68.9794 55.9952 68.4974 55.9952 67.9019C55.9952 67.3064 55.5151 66.8245 54.9219 66.8245C54.3288 66.8245 53.8487 67.3064 53.8487 67.9019C53.8487 68.4974 54.3288 68.9794 54.9219 68.9794ZM54.9219 67.1036C55.3612 67.1036 55.7171 67.4609 55.7171 67.9019C55.7171 68.343 55.3612 68.7003 54.9219 68.7003C54.4826 68.7003 54.1267 68.343 54.1267 67.9019C54.1267 67.4609 54.4826 67.1036 54.9219 67.1036Z" fill="#DEE6F3"/>
</svg>
