<svg width="70" height="70" viewBox="0 0 70 70" fill="none" xmlns="http://www.w3.org/2000/svg">
<rect width="70" height="70" rx="34" fill="#CCCCCC"/>
<rect width="70" height="70" rx="34" fill="#EE5E3D"/>
<path d="M32.9688 47H28.0625L28.0938 43.625H32.9688C34.2917 43.625 35.401 43.3333 36.2969 42.75C37.1927 42.1562 37.8698 41.3073 38.3281 40.2031C38.7865 39.0885 39.0156 37.7552 39.0156 36.2031V35.0312C39.0156 33.8333 38.8854 32.776 38.625 31.8594C38.3646 30.9427 37.9792 30.1719 37.4688 29.5469C36.9688 28.9219 36.349 28.4479 35.6094 28.125C34.8698 27.8021 34.0208 27.6406 33.0625 27.6406H27.9688V24.25H33.0625C34.5833 24.25 35.9688 24.5052 37.2188 25.0156C38.4792 25.526 39.5677 26.2604 40.4844 27.2188C41.4115 28.1667 42.1198 29.3021 42.6094 30.625C43.1094 31.9479 43.3594 33.4271 43.3594 35.0625V36.2031C43.3594 37.8281 43.1094 39.3073 42.6094 40.6406C42.1198 41.9635 41.4115 43.099 40.4844 44.0469C39.5677 44.9948 38.474 45.724 37.2031 46.2344C35.9323 46.7448 34.5208 47 32.9688 47ZM30.4688 24.25V47H26.1719V24.25H30.4688Z" fill="white"/>
</svg>
