<svg width="17" height="18" viewBox="0 0 17 18" fill="none" xmlns="http://www.w3.org/2000/svg">
<path d="M8.4899 8.71379C7.26421 8.71379 6.26297 8.30816 5.48619 7.49691C4.7094 6.68565 4.321 5.64 4.321 4.35996C4.321 3.0799 4.7094 2.03323 5.48619 1.21994C6.26297 0.406645 7.26421 0 8.4899 0C9.71559 0 10.7202 0.406645 11.5037 1.21994C12.2872 2.03323 12.679 3.0799 12.679 4.35996C12.679 5.64 12.2872 6.68565 11.5037 7.49691C10.7202 8.30816 9.71559 8.71379 8.4899 8.71379ZM0 18V15.1027C0 14.3652 0.179313 13.7264 0.537939 13.1864C0.896565 12.6464 1.36043 12.2362 1.92953 11.9557C3.08401 11.4148 4.19649 11.0092 5.26694 10.7387C6.33741 10.4683 7.41142 10.333 8.48896 10.333C9.58486 10.333 10.6629 10.4727 11.7231 10.752C12.7832 11.0313 13.8851 11.4343 15.0287 11.9609C15.6224 12.2305 16.0994 12.6354 16.4596 13.1756C16.8199 13.7158 17 14.3569 17 15.0988V18H0ZM2.01353 15.8971H14.9721V15.1597C14.9721 14.883 14.8916 14.619 14.7306 14.3677C14.5697 14.1164 14.3706 13.9303 14.1333 13.8093C13.0872 13.2907 12.127 12.9347 11.2529 12.7412C10.3788 12.5477 9.4564 12.4509 8.4857 12.4509C7.53415 12.4509 6.60804 12.5477 5.70738 12.7412C4.80671 12.9347 3.8486 13.29 2.83305 13.807C2.59172 13.928 2.3948 14.1144 2.24229 14.3662C2.08979 14.6179 2.01353 14.8824 2.01353 15.1597V15.8971ZM8.4899 6.61091C9.11439 6.61091 9.63072 6.39856 10.0389 5.97385C10.447 5.54913 10.6511 5.01033 10.6511 4.35744C10.6511 3.70041 10.448 3.16039 10.0418 2.73739C9.63559 2.31438 9.12024 2.10288 8.49574 2.10288C7.87125 2.10288 7.35492 2.31461 6.94677 2.73808C6.53861 3.16154 6.33453 3.69885 6.33453 4.34998C6.33453 5.00526 6.53764 5.5459 6.94384 5.97192C7.35005 6.39791 7.8654 6.61091 8.4899 6.61091Z" fill="white"/>
</svg>
